<mxfile host="app.diagrams.net" modified="2023-07-31T03:53:34.506Z" agent="Mozilla/5.0 (Macintosh; Intel Mac OS X 10_15_7) AppleWebKit/537.36 (KHTML, like Gecko) Chrome/115.0.0.0 Safari/537.36" etag="FB5Se73MXBs1Tur_wGdU" version="21.6.6" type="github">
  <diagram id="prtHgNgQTEPvFCAcTncT" name="Page-1">
    <mxGraphModel dx="2074" dy="1150" grid="1" gridSize="10" guides="1" tooltips="1" connect="1" arrows="1" fold="1" page="1" pageScale="1" pageWidth="827" pageHeight="1169" math="0" shadow="0">
      <root>
        <mxCell id="0" />
        <mxCell id="1" parent="0" />
        <mxCell id="dNxyNK7c78bLwvsdeMH5-11" value="NowBookit" style="swimlane;html=1;startSize=20;horizontal=1;containerType=tree;glass=0;" parent="1" vertex="1">
          <mxGeometry x="40" y="80" width="850" height="290" as="geometry" />
        </mxCell>
        <UserObject label="Diary Mobile || Widget&lt;br&gt;&lt;span style=&quot;font-weight: normal;&quot;&gt;&lt;font color=&quot;#1a1a1a&quot;&gt;Create new Booking&lt;/font&gt;&lt;/span&gt;" name="Tessa Miller" position="CFO" location="Office 1" email="me@example.com" placeholders="1" link="https://www.draw.io" id="dNxyNK7c78bLwvsdeMH5-12">
          <mxCell style="label;image=https://cdn3.iconfinder.com/data/icons/user-avatars-1/512/users-3-128.png;whiteSpace=wrap;html=1;rounded=0;glass=0;treeMoving=1;treeFolding=1;" parent="dNxyNK7c78bLwvsdeMH5-11" vertex="1">
            <mxGeometry x="290" y="40" width="190" height="80" as="geometry" />
          </mxCell>
        </UserObject>
        <mxCell id="dNxyNK7c78bLwvsdeMH5-15" value="" style="endArrow=blockThin;endFill=1;fontSize=11;edgeStyle=elbowEdgeStyle;elbow=vertical;rounded=0;" parent="dNxyNK7c78bLwvsdeMH5-11" source="dNxyNK7c78bLwvsdeMH5-12" target="dNxyNK7c78bLwvsdeMH5-16" edge="1">
          <mxGeometry relative="1" as="geometry" />
        </mxCell>
        <UserObject label="Venue setting&lt;br&gt;Menu" name="Evan Valet" position="HR Director" location="Office 4" email="me@example.com" placeholders="1" link="https://www.draw.io" id="dNxyNK7c78bLwvsdeMH5-16">
          <mxCell style="label;image=https://cdn3.iconfinder.com/data/icons/user-avatars-1/512/users-9-2-128.png;whiteSpace=wrap;html=1;rounded=0;glass=0;treeFolding=1;treeMoving=1;" parent="dNxyNK7c78bLwvsdeMH5-11" vertex="1">
            <mxGeometry x="70" y="40" width="180" height="80" as="geometry" />
          </mxCell>
        </UserObject>
        <mxCell id="65CvcbHGnhsk7synffQI-1" value="" style="shape=image;verticalLabelPosition=bottom;labelBackgroundColor=default;verticalAlign=top;aspect=fixed;imageAspect=0;image=data:image/png,iVBORw0KGgoAAAANSUhEUgAAAYgAAANMCAYAAABGpTqtAAABVmlDQ1BJQ0MgUHJvZmlsZQAAKJF1kD9Iw0AYxV81GvEfKo6KXQoqVSRVOtcORXEIreKfLb3GVEnrkUS0ODi6OHXoJjgJ7mJXBxF3QcVZEBQXhSBoid/ZalrFg+/ej8e74/EBTZLGuSkByOUdK5mYDi4trwTlB8gYQivdksZsHlPVOYrgWxuPe42A0Ksx8VepuHu/8/gWSRXOQxfPB9LffMNpz+g2I/2gGWXccoDAMLG65XDB28T9FpUi3hdsVPlQcLrKJ1+Z+WSc+JK4h2W1DPEtcThd5xt1nDM3Wa2DaN+p5xdSpN00A4hDQRSzSGAK1OCf7GQtuwGOAiyswUAWDoKIkcNhQieeQR4M4wgTK5igiYgd/96d763vAdE2gmPfMxTg9AnoffG90CDQ1wWcFblmaT8bDbiSvRpRqtxRBlpKnve6CMgjQOXG897Lnlc5Aprv6K37Cb9CYxrtqiwSAAAAVmVYSWZNTQAqAAAACAABh2kABAAAAAEAAAAaAAAAAAADkoYABwAAABIAAABEoAIABAAAAAEAAAGIoAMABAAAAAEAAANMAAAAAEFTQ0lJAAAAU2NyZWVuc2hvdGnEnUAAAAHWaVRYdFhNTDpjb20uYWRvYmUueG1wAAAAAAA8eDp4bXBtZXRhIHhtbG5zOng9ImFkb2JlOm5zOm1ldGEvIiB4OnhtcHRrPSJYTVAgQ29yZSA2LjAuMCI+CiAgIDxyZGY6UkRGIHhtbG5zOnJkZj0iaHR0cDovL3d3dy53My5vcmcvMTk5OS8wMi8yMi1yZGYtc3ludGF4LW5zIyI+CiAgICAgIDxyZGY6RGVzY3JpcHRpb24gcmRmOmFib3V0PSIiCiAgICAgICAgICAgIHhtbG5zOmV4aWY9Imh0dHA6Ly9ucy5hZG9iZS5jb20vZXhpZi8xLjAvIj4KICAgICAgICAgPGV4aWY6UGl4ZWxZRGltZW5zaW9uPjg0NDwvZXhpZjpQaXhlbFlEaW1lbnNpb24+CiAgICAgICAgIDxleGlmOlBpeGVsWERpbWVuc2lvbj4zOTI8L2V4aWY6UGl4ZWxYRGltZW5zaW9uPgogICAgICAgICA8ZXhpZjpVc2VyQ29tbWVudD5TY3JlZW5zaG90PC9leGlmOlVzZXJDb21tZW50PgogICAgICA8L3JkZjpEZXNjcmlwdGlvbj4KICAgPC9yZGY6UkRGPgo8L3g6eG1wbWV0YT4K3KuqsAAAQABJREFUeAHsnQd4FNX6xr/0AgkQeock9NB7R6QoVZqioqBcxV6u/vVaQC+Wq17LFbsi2FCkI0iR3nvvvXcSSICEZFP+854w6ybZJJvZbMu+3/Nsdnbm1N/Aeed835kZn5o1ozKOHj0sNBIgARIgARLQCURGRouv/oPfJEACJEACJGBJgAJhSYPbJEACJEACZgIUCDMKbpAACZAACVgSoEBY0uA2CZAACZCAmQAFwoyCGyRAAiRAApYEKBCWNLhNAiRAAiRgJkCBMKPgBgmQAAmQgCUBCoQlDW6TAAmQAAmYCfj6+Ji3uUECJEACJEACigC0gTMI/mMgARIgARKwSoACYRULd5IACZAACfjbiyD1ZopIRoa9xRSp/P4hQUWqP+wMCbgzgeQLR+X89LGSfP6oOzfTJW0LrlxXKgx5QwIjKhuq37BAHF+6TTaOmy4BoRgMGcjQ6YNEyo0kaTaqn0T3aq3v5jcJkIADCKRei5Xjnw2TCLkqEYF0iGRHnHRylRz75B6pNWax+AYEZz+c729DAhF/4rxs+myG9P3+JQkpHZ5vJd6WwHTjpvz5yIdSonp5Kdughrd1n/0lAacRiF0+UcLT4yQ42NBQ5rR2uqqikCA/MSXFSdyayVKmy4gCN8OQ5B6ev1GajOxFccgFd0CxYGk6qq8cnrc+lxTcTQIkUBgETJdPSoCfoWGsMKr3iDIC/DIk5eJxQ201RDblepKERIQZqtBbMoFPyrUkb+ku+0kCJFAECRgSiCLIgV0iARIgARLIRoACkQ0If5IACZAACWQSoEDwXwIJkAAJkIBVAhQIq1i4kwRIgARIgGvD+G/ALgKrV6+W9PT0LGWUKlVKateuLUFBhXvD4NatWyU1NVWaNGkigYGBWepMTEyUJUuWiI/2AJk+ffpkOVaYP1atWqXdF/r3jaH+/v5StWpVqVKliqq7MOuyLGvHjh1y8uRJqVu3rtSqVUs2btwoN2/elKZNm0pYGBeMWLLiduERcCuByEjPkBsXr0jx8qW0e+94813hnWbHldSxY8dcC58xY4YMGDAg1+MFPdClSxe5du2aHDt2TGrUqJEl+8WLF6Vfv35qn+UAniWRnT/S0tKkU6dOVkvp27evTJw4UUqXLm31ePadL774osTGxsrYsWOVwGQ/nv33Z599Jt9//72899578vLLL8u9994rR48elfXr10vr1rwhMzsvR/z2CSouElRMMhIuOKJ4tyzTPQRCuyLb9v08Wf32zxJYLEQCw0Okzl0dpdWzg8Q/OOuVoqMorvtgsgRrS1Ob/qO3o6oo0uX2799fypQpI0lJSbJy5Uo5ffq0DB8+XA3afn5+Du87rqIfffRR8fV1jtdU7+/58+flzz//lDlz5ki7du1kz549gllFfvb7778rRs8//7xNAgFhAsdGjRrlVzSPFzIB35KVJWTYd+IbUVUr2Ucykq9LyvIvJGXDz4Vck/sVl/+/ZCe0ee/UFbLlqz/knj/elXKNIiX+5EWZ/8QnUrxChDQa3tMJLRBJM6VKuvahGSOAK2F98Nq7d680aNBAXe1DKKpXry4pKSny8ccfy9KlS+XChQsSExMjTz/9tLRp08ZcIWYB77zzjnKf4Gq9ZcuW8tprr0mlSpXMafQNzBLef/99OXfunFSsWFEeeeQR5frR3V2XLl2SN954Q13RY5bz448/islkkoEDB8qQIUPUYIuyMLD//PPP6mr+qaeeErT9xIkT6io9KipKry7Ht2V/IQroz8GDB1V5mDXBFfbVV1/J/PnzJTk5WV3l/9///Z/A/Ya84AL75JNP5IknnpAWLVrIhAkTZOHChYK2o+/dunWTHj16qHToV14zo+vXr8vcuXNl2rRpkpCQIJhtDRo0SOrUqaPy849xAkF3viY+gSFyY9wdIn4BEtzvbQnq+ZKkbJykPYcuq3vVeC3umdMtBGLLV7Ol7Yv3KHEAphLVykm3Dx+XC9sOK2q4MW/FmAlyYsVOdaz54/0kskdLSYq7JnNHfiCVWteTfZrIhFcpIz0/e1aliT1wSpa89LVcOXxWqnVpLLe9PVKCS4XJuS0HZdXYHyXh9GWp2a2ZdBozXHDnM80+AnB1XL58WQ2Gf/zxhyoMfnmIAwzuHwx+uu3cuVN+/fVXtQ+DINwtDRs2FIiEbps2bVKD9/79+3OIxL///W/BBzOHtWvXKjH67rvvVNZvvvlGDZIYoLPb1KlTpWzZsnL77bfL9OnTZfDgweYkEC/dHn74YclLIPR0+IYYRkZGKpfPmjVrlFvtgQcekMmTJ5uToezZs2cLjn/xxRfm/T/88IN07txZzbrgdtJt+fLl8t///tfMB7EeuJjQpjvvvFNPZv5+7rnn1HHwgBtu0aJFyh0Fd5ytbi9zYdzIQsC3bJRkJCVI+tUzan/S5KckuPcYTTRC1Wwi9MGJ4letqXpoadrJrZL480jBPogHtmGhD/2iuabOS9L0FyWg2WAJ7vmyiH+QpMedlMQfH5KM65dUOnf745z5eB69TksxydVj56R8k6xXa2XqVpMG93ZVOXf9vEhSk03ywNKPpfXzQ2TpK+M19hmSnpom57cdkgDt6alD//yPBJUoLvumLVd51v13skT3bivDV4/TzkOA7Jms/efXrjr/ev5zafhADxk4ebRcPxcnaz/4LY/W8ZCtBEaNGqUG3V69esnXX3+tsmE2APvrr7/M4oAr9jNnzsjQoUPVMbhYYJhdQBwQ3EYwGkHZ+vXrq8EOA6Wl4Uob4gBbsGCBunq3PJ59+/PPP1d1Ik4AgzDBxowZo77vu+8+gQi99NJL6reRP5gBwDCjQft1cdiwYYOcOnVK9QuzEwgUZlAQTxj6OWLECHX1j8F9ypQpavbRvXt3dRyCkp9BmCEesBUrVsiNGzfk7rvvVsKFftHsI5C86EOBSIS9vkOKPTZTAtuPlJtzxihxwGAPcUj86WFJ/P4+8avZSvyjO0jqkTXiV6Ol9sYdf0Hswq9qYzHtXaB5qHwluNfrYto9XyA0PqElJXTYt/Y10IG5XS4QPreeo2JKTM7ZzVurRZo+2lti7usm+6avlP3TV0hSbLw21v89tWvxRH/ljors2UKunb4keFjescVbpOGw7mrW0PnfD2lPVm0jl/YclwTNfQVROrtpv3qY3smVO3PWyz0FJjBy5EgZPXq0cs20b99e5UcM4vDhwyqQih1we2CFEVxGzz77rEqDQfPKlSuC1UEwXHljZQ7cVRg4YYhpWNpbb72lfj722GPK7295zNo2ZgOoUw+YHz9+XLDqCXXD4MaCK0YXDGtl5LcPV+2wiIgIwewIhgH/22+/lTfffFMN+thnOUvBb90wu8JsAhwwo8IMAAb3VH6GOnXBadasmXJPYUaDGZJ+LvIrg8dzJ5C6b5Hc+KJPpktJi0EEthshxZ5brDKYts2QpBkvS0DzuyWoLy5afMS3VDUx3YpPBDQZIAGtHxAxJUvqvsUS0EBzU2miIf6B4h/TSzKuXRbf0jVyr9zFR1wuEL5+flKyZkU5uSrrQH34z/Uyue+rCs/mz2fJ8tdxhZQhkT1b5UDmG5DpKUNZ0JQbl66qNH5Bt/b7+wne0XDjwhXtAYMlJCNN8+dqn9K1q0jLpwpvlU2OhnnRjmeeeUb51rHKBoMdBkfY4sWLJT4+Xm1bxhLg5tEN/nM9TYUKFfTdUr58ebV99Wrm+TQfuLWBmQpcKPlZSEiIShIQEGBOCoHQrXhxbXWKZliWq7dbP2bLNwZxuIBgNWvWFL29EA3EJ/ApV66cirdgSaw1g5giZoDVSmgvYhC2GgLzWDGmzzogfDgPlStXlgMHDthaDNNZI6Bd8Rd7cq74BIRI8l8fyI2v71KxCMwKAmJ6S2DrYRIyWJthhJWTNG3WoLk1VCkZqcmSdna35k4aJAFN7pLUg8vUfiUG2sWtD2YW2if90mEx7ZhlrWa32OdygQCFpo/0FriR4g6dVlCun4+TDf+bJs0ezVzPfnzpVmn+eH9p8nAvSdeCl/lZyRoVlOgcW7xVuZVWv/OL7J2yTKq0ayBp2guOqnVsJDH3d9fe23BTzmzYl19xPF5AAnCb6FfU8H9j7T4M7iUEq2HLlmX+h8E2hANBXhhcRrrpMQv4+C0NV8b6AKq7qCyP27KNFVe6GMycOVNlwVW73m5bykAazH7QBj0fBvno6GiVHeXDvbZu3To18CPGgOWplobAM9xSuksKLiEEm4ODbY+LQRDAFu49iBPyw1UH08u1rJPbBSCgDea+4RUkSIs5wD0E06/4M9KSxb9+Ty02cVa5mOBWUrODW8WnrJ0gfhXri2/JSpK87DO1N2Wj5t7UlvCnbJ2qzTw0l6a2bNavRs6L3ltFuPwr8xLbxc1oMPR2LQ5xXiZ1f1Etc8ULd/A4cbiFYI1H3KHNICbItu/mSoR21V+8YoT2PoqZ0vD+brm2vN3L98q8UR+pGUPJmhWk7f8NVbOIDqMfkKmD3lD5/AL95K5fXlfbPr647wIfmhECHTp0UFe+WOaqD5YYILt27apWDL3wwgtqP66gsW4fAxrs9ddfV8exkgexAQz+rVq1UvsQ+IZhdZGlwY2CmAVWJyHwC1HRRcgyXX7bcHO9/fbbggDvuHHjVJA5vzz6cb2/lkH1d999VwXlS5QooWYMONa7d281WOsxAtzMB9Nv9MNKK9zXAFbgNmnSJDWb0l1uWA2Vn2H5q+5227JFc61qwX59hqSvLMuvDB7PnUDSzJe1uMFoLQaxXZshaBeo2gCfun+Jchlpd4lKyN3/k7DXtItRrDRLvCKBtz8rKZt+zTyeZlL7EIyGZSRd1WYMf2hxh8wFFXB5JE1+MvfKXXzEJzIyKuPIkcMFasa6D3+XqtrVeJV2mVd9BcqcR2LEIa6fj5WwiqXVYG6ZFCuZsAwVK5HwnZaSmu/qozQtsI1ZQvZHkyO4HX/ygopBwC3lCLu466haWdV57EOOKN5tysSdy9kNgx3iDRi0GjdurA7jzl9cXevLO7ETMQQM9LoLCD74hx7KygsrkZAOFh4ergZRxBCwOgqBWAR94W/H1b++6ghX5UeOHFFX8mgLln3CfvnlFxXjgGhhoIZrCPEHxAlgcPNgOSwGarRXn6Wog9ofLDW1dk8HykPQHUttdcNA/eCDD5rjHNiPJa0QIxgC5+ADEUHQHW3Uj8Ed1bNnT7WCC4F6uKhwjwdWaWFpL4Lp6CtulEMQHIIKAYJAYZ9uI7QYDsq2do70NJ7+fXriMxJ8dLEEBTjeGeITXl58S1SStFPbsmDz0VYj+ZavLWlndqlZBmYM6VcyvSFZElr88NHe7uZXrZmkndgicEc50pJS0iS10T1S6e43C1RNVFS0uJVAFKj1bp7YWwSiIKcBAyweFxEXF6cGbwz42Q33KiCwjbRw1RT24zos69PvUcAVd00tdoDVVdWqVVNJMGBDXOwxvb8QHDweI7vbCMexAgkzDvQTV/36iicjgzqEcdeuXYJ7SBC0tozz2NMPd87rTIFwZw55tc0egXALF1NeneOxokMAwdQaNWqoT269QiC5Xr16uR0u1P2YncDVhSt2uKvg3oJh5mCvOKAcvb/YtmY4jrp1Cw0NtevGNogKXUo6TX4XBgHHz8sKo5UsgwQcQGD8+PGC1VcIWEMcMFjDVYRHZ9BIgAS01biEQALeSgCC8Omnn6ruY3WVHjj2Vh7sNwlkJ8AZRHYi/O2VBCgOXnna2el8CFAg8gHEwyRAAiTgrQQoEN565tlvEiABEsiHgCGBKFaulFw9ej6for378NWj56RYhVLeDYG9JwES8GgChgSi/t1dZO/UZXJqlXZjCC0HgbMb98v2CfOkwT1dcxzjDhIggcIjEFKzudxMd8zNroXXSteWlOwTIiE1mhpqhKEb5VDTtTOXZdO46XJZe+8CLSuBUpGVpMWTd0mpqEpZD/AXCZBAoRM49HYPCUk8KyH+fz/hudAr8dACk9IDJCW8hkS+NLvAPTB8J3WBa2IGEiABEnAggctLvpfEo5u1GjIcWIuHFa3dOFmsdnsp3WmYoYZTIAxhYyYSIAESKPoEIBCGYhBFHw17SAIkQAIkQIHgvwESIAESIAGrBCgQVrFwJwmQAAmQAAWC/wZIgARIgASsEqBAWMXCnSRAAiRAAhQI/hsgARIgARKwSoACYRULd5IACZAACVAg+G+ABEiABEjAKgEKhFUs3EkCJEACJECB4L8BEiABEiABqwQoEFaxcCcJkAAJkIB6J3VaWsGegujr6yM+2oOgaCRAAiRAAu5PICMjQ9LTC/4gQyUQeGF7QSwgwF/8/VXWXLNdu3ZNzp49m+txHiABEiABErCfQKVKlSQsLCzPgtLS0sRkSs0zjbWDeY/y1nIUYJ/JZCpAaiYlARIgARJwJwIOEwgoWkxMjDv1lW0hARIgARIoAAEGqQsAi0lJgARIwJsIUCC86WyzryRAAiRQAAIUiALAYlISIAES8CYCFAhvOtvsKwmQAAkUgAAFogCwmJQESIAEvIkABcKbzjb7SgIkQAIFIECBKAAsJiUBEiABbyJAgfCms82+kgAJkEABCFAgCgCLSUmABEjAmwhQILzpbLOvJEACJFAAAhSIAsBiUhIgARLwJgIUCG862+wrCZAACRSAAAWiALCYlARIgAS8iYDDnuaaF8Qz6/fK6XV75eyGvSpZpdb11Xfr5wfnlS3PY/EnL0ry1etStkEN8fH7W/eun4uT0LIlxNffL8/8Re1gyvUkSdee/x5cKu/nxNva7/TUNElOuCEhEeGSmpQsaaY0CQoPtTU705EACXggAacKBIRh4/+myWntW7cqberLxk+nqZ/4bvXsYCmIUJzZuE9Wjf1JLu0+psoILBYiMcO6Sft/3ae9QSldJrZ9Qu6Z866UaxipV+kV37t+XiQXdx+VO794Ls/+gt/NK9clqmfLPNOd33pIpt/9pjx9fLLs+mWRnFy5Q/r//FqeeXiQBEjAswk4TSA2fDJNCQEEYeDkMVJZ+9ZnEgO03zA9DYRCT5Mf3jXv/CKVW9WTgb+NlgztlXoH56yV5a9/L5Va1pXqtzXJL7vXHz+1epdcOXQmX4EoXaeqDNAY00iABLyHgFMEYubQsWrWoM8OIAz6PqC2nDlUaVtfZmjp8clPJK6dvSwXdhyRVs8MksCwTHdHw2Hd5dqZS1nO4Plth2T7hPly/Vys1OrbVhre310dv6m5pDZ8MlXObTkoxStESNN/9FbCtfvXJWJKvKl+w52y9NXxUrtvO6nRtanAlbXxf1Pl9vdHia/26lXdjv61Sa4eOy/ay7rlxPJtUqFpLak/pIts/nK2lueCRPdqLY0e7KmSx+4/KZs+nylXj5+XMnWrSUut/SWqlZN47feWb+ZI1B2tZPv387Sr/2fFLzBAtmr7Tq/fI2EVy6jZEcrObunaKwW3fTtXzmzYJ6WiKkl6tveMH5i5Sg79uV69SxwMavdrL6fX7pFDc9ZprqNE2fLVH9L88X5yfvth2T99pcQeOCnlG0dLg3u7SqnISpIYG6+lXStV2jbIUvX183Gy9/dlcnLVTsWw5VMDpLTWJxoJkIDnE/jbWe+gvmBWAJeSLg6oBoM/9kEAsB8fiASEAzMLuDFgcEflZcXLR0jxihGy+KVvMl1X6/aI6cZNaffyfVKzW3Nz1nXvT1YDMeITy1/7Xi7uOioZ2gA6a9g7mqtkpzR5uJeUi6mp2nVx51HxC/BTAyYKuKClxeC6f8ZKVd7JVTvkypGzWcQBB2IPnpY1/5kk57cckOpdmsrmL2bJT12e02IAxaVquxhZMWaiXNpzXDCg/nrHS5Icf10wmKbeTJGpA0YLYgY3tX17flsiC574n0REV1bisPCZcbJfqz+6VxtJupKg0qKc7Lbx0+my+fNZSphSriXJzh8WmJPs/HGhNquaoI4Vr1xGFj7zmeyatEjCKpVW9YBhhea1tDbdkNn3vyOiveC8+ah+kqAJ2zJNHGFJlxMEwpndMFuLPXhKmj/WT2uvv8zU8mMmRyMBEvB8An9fAjuoL5azA1QBEYBBFCAGuqtp46eZgqC7myAeEBIITG4xCQSjh8x4W7uCXSoHZq+RDbcEpc6AjtL5zRESUDxY1dV57ENSd1AntX143nrt6viUNkNIVnGL4avGSXjVcurYOW1w3ztlmbR4coAkxX6trujPalfkJWtWlBPLtquB7/Tq3VKzewuV3tqf7p88JQGhQVo/9yjffvtX7lfJdmiDdNyh05Kw5KISNd1/X/P2ZvJFrWHarGO71o6yKm2fCS9J5db1VPojCzfJkJlvqcEds6PZD/5HCRbEztIOzFot7V8bJjH33a52oy7d1n0wWVo8PUAN4tiH2dJuLUaBmVTpetVUAB9uuiRtltD25aFqf4ZkaIJ0TRa/+JU2G0nTi8rxDXGo3LKeVGxRR6p1bCTHtX4gOO4XFJAjLXeQAAl4FgGHCoQuBtaQwJWkG0QCpq9m0vfn941ZQGiZcGn1nDYL0T43Ll6VIws2qKt1rLDpOOZBVUTJyIrmokJKl1BX7XDnYFsXBySIqF1V4k9cUAM4XD9nNx/QVlvtkdb/HCILnx6nrpQx42j+eH9zeZYbVdo1UOKAfQGhwao8/XhAsSDBSqArx85pM4qG+m41E4moVUVuXLhiFoiKLWqr41e1tLDZw95V3/iTciMpx+ohuL0StE/lVnXN6dAWuLCS4hJUnrXv/SqbP5upjqMMBPOzW1DJ4nIz7pr8dNtzqjzwyc+6/udRNSPZN32FErGY+7tRHPKDxuMk4CEEHCoQGPh19xEEQZ8xgA3cRxAE7MeS1+ymu5dymz0gPWYNK0ZPkEd2jhdfPz8pVq6k8vNf2n1cLu87YS7S2hJXiAaumOHi8Q8OVGnjtGCt7mOv2aOFuqqHn/6Oz59V8Yft3/2p0pXV3FHWDKJgaVo4IofBdXRqzS7zflxt42q/fJNo8z5f30zPX2DxULVv8Iyxqm/4ARdV9qtziCTsxqWrUkorHwahg+lt6vreo+ZANFxJmB1kt6MLN6tZWL8fX1FB/kt7jsn0IW9mT2b+jbaHlikhD2/4UvXh8LwNasZRSZuNIKZCIwES8GwCDo9BYIDHyiXdXQRccB8hBgH3E/Znd0PpAWyIS15WsVktdXW84eOpam0+fOeXtQAwArrWArmWZVXQ8uIqGsFgiATiCli6qa98grvk0Nx1KnaBtf/VOjUWXCVH92kjPr5WRn7LwvPYjtTcUxAduJTQXgSO0Y7yTaJy5IIbCcfgPoKIJZy6pMVN3pWzG/dnSQsRiO7dRnZogXjMRC7sOKxcYkiEfBBmDN64dyE1KUWWj/7eHKOAGEEsEDe4cfGKmlXBvaU1TnbcimNgppabTRs4RgWvS2uzrwZDu6pkJm2GQiMBEvB8Ag6dQeh4EFfAoA8hgEE0EIhGfAGmzy7gktLvk4A45DV7QL4SNSqodf5LtCA1gsIwDKgYLFs/P0T9xh8fK5fymHF0futhWfTPL2TdfzOD4ghWl9GWc8IgMCirqiYUMN0NVqOL9aWzqMOyHsttVcCtPxG1qygf/x8j3jPv7vnZM2oGZN5xayOoRDHBMbi3tnw1W+1FfKXekM7Zk6r4wsyhb8mE1o+rY1hxpdvt2uzhj4felwmtHlO7MAPq9uETaruSJgaI3cx5+H3p/vGTsnvSYvmqbqZrrsWTdykGfz3/hTQecYdeXOa3j69yjyHugeMIgsOajNQY1quemYZ/SYAEPJqAT2RkVMbu3bsL1IkAbXmnv3/BtUW/z0GvDDML3fSb57AP8QR9QNaP5/WdlmJSPvMM7YocLhwsNbXVsOop/tRFbQlpacGA7CxLvByvrQyKVyKnu7hyqxszHLiMgrUYQbHypXJLJmnJJrWkNrxKWfEPCcqSDoFmzEBABsJqaWCAWZGeB/GZ4hoPuLJQN8rNi03KtUTVPsRSsru/LOvhNgmQgGsIpKamiklzCRfEYmJixKkCoTdOnzngURsQBl0oCioMenn8JgESIAESyJ2AUYEo+DQg9zbYfCQ/15HNBTEhCZAACZCAwwg4PEjtsJazYBIgARIgAYcSoEA4FC8LJwESIAHPJUCB8Nxzx5aTAAmQgEMJUCAcipeFkwAJkIDnEqBAeO65Y8tJgARIwKEEDAmEdrsBjQRIgARIwEMIGB2zDQkE3tRGIwESIAES8AwCRsdswwKBu5ZpJEACJEAC7k0AY7VTBQI4Ugt427Z7I2TrSIAESKBoErBnrDY0gwDGVO3ZPqna+w1oJEACJEAC7kkAYzTGaqNmWCBQoclk0kSiYA+AMtpQ5iMBEiABErCdQObzl0y2Z7CS0u5nMeEJgWna+wL8/f3ET3uENo0ESIAESMB1BNJueXeMxh0sW263QKAwNCQlBSubTOKrXqZj++O2LRvDbRIgARIgAaMEEIwu3MVDhSIQlt3JbGDhNtKyfG6TAAmQAAk4h4BdMQjnNJG1kAAJkAAJuIIABcIV1FknCZAACXgAAQqEB5wkNpEESIAEXEGAAuEK6qyTBEiABDyAAAXCA04Sm0gCJEACriBAgXAFddZJAiRAAh5AgALhASeJTSQBEiABVxCgQLiCOuskARIgAQ8gQIHwgJPEJpIACZCAKwhQIFxBnXWSAAmQgAcQKNRHbfj4+PBZTB5w0tlEEiCBokgg81lMhfkyt0IRCDzFFU9z9fXlhKQo/rNjn0iABDyHAB6eivdA4Kmu9prdAhEYGMDHfNt7FpifBEiABAqJAC7UAwN9NYHw1Z6ybd/7IOy65Kc4FNIZZTEkQAIkUMgE4NnBGG2PGRYIf39/zhzsIc+8JEACJOBgApnuf+OOIjsEgm+Pc/C5ZfEkQAIkYDcBxIeNmiGB8PPzFaxYopEACZAACbg3AYzVGLONmKFcPj6GshlpH/OQAAmQAAnYScDomG1opOfkwc6zxewkQAIk4EQCRsdsQwLhxH6xKhIgARIgARcRoEC4CDyrJQESIAF3J0CBcPczxPaRAAmQgIsIUCBcBJ7VkgAJkIC7E6BAuPsZYvtIgARIwEUEKBAuAs9qSYAESMDdCVAg3P0MsX0kQAIk4CICxh/SUcAG37h4VTK0R9Bas8CwEAkMC7V2iPtIgARIgARcRMBpAjFt8BhJOHnRajdbPj1Q2rxwt9Vj3EkCJEACJOAaAk4TiPqDu0hiXIIkX7kmB2avkcBiIVJ3SGfV6/KNo1zTe9ZKAiRAAiSQKwGnCUTLZwaqRlw5elYJRGi5ktL5zRFqX2pSsqx571c5unCTpN5MliptG0ij4T2lfONoMSXelFVv/SxH/9osJWtWkOg7W8vh+Ruk1TODpFqnRnJx11HZ9csiObZ4q5SKqijRvdpI4xF35NphHiABEiABErCNgFsEqfdOXS5bv/5DfLXH0lZoVlv2z1glcx7+r+rB5s9nyZ7flqjta2cuaWLxk5zbfECStNlIuhbTmP/k/+Tw3PVSd2BHSbwULyvf/EGJhm3dZyoSIAESIIHcCDhtBpFbA7C/WLlS0valoVKzazNBMPvwn+slKTZe0rTX5WG2ALv/rw8kqGRxmXHPWCUQ2Hf9XKyKa8BdVaJGeek4+kFJuZGkhAbHaSRAAiRAAsYJuIVAhFUuI2vf/03WfTA5S08SL12Vq8fOSZm61SSkdAl1DO4nzCBg4VXLSb3BnWXftBWy/LXv1b6KLepItw8fV9v8QwIkQAIkYJyAW7iYFv3zSyUEPT55Uh7Z9p0KYKNLEAV8Ek5d0mIRyaqXiDnolng5XurffZv0/+lV6TjmQS1mEaXEY8tXs/Uk/CYBEiABEjBIwC0EQm+7f3CgbP12jnIT6ftq92urfk+/+02Zed9bcmL5dv2QEg3sX/HGRAmJCJcatzVVx3wNvj3JXDA3SIAESIAExC0EQl/hNO/xT+TEsu3KpYRzc2n3MWn+WH+p3qWJ2k5OSJTKbeqr0+ajiUCJauWk+eP91Ozjr+c+lw3/m6atdKooLZ/KXDHF80sCJEACJGCcgE9kZFTG7t27C1RCQIC/+PsXbvgi9WaKWpkUVqlMlrYcmLlK0kxp2vLV1oKZgRIRbRZx74IPzEKSHH9DBawDiodIWMXSAvGgkQAJkAAJZBJITU0Vkym1QDhiYmKkcEf5AlWfNTHcS9nFASmuaEHqTeNmqCB2miYiWKUUrs0cImpVNhcQVKKY4EMjARIgARIoPAJuIxC5danF4/2lTJ1qcmbTfjFdT5KI2lWlwdCu2mzCL7cs3E8CJEACJFAIBNxeIPxDgiS6dxv1KYT+sggSIAESIAEbCdBZbyMoJiMBEiABbyNAgfC2M87+kgAJkICNBCgQNoJiMhIgARLwNgIUCG874+wvCZAACdhIgAJhIygmIwESIAFvI0CB8LYzzv6SAAmQgI0EKBA2gmIyEiABEvA2AhQIbzvj7C8JkAAJ2EiAAmEjKCYjARIgAW8jQIHwtjPO/pIACZCAjQQoEDaCYjISIAES8DYCFAhvO+PsLwmQAAnYSIACYSMoJiMBEiABbyNAgfC2M87+kgAJkICNBCgQNoJiMhIgARLwNgIUCG874+wvCZAACdhIgAJhIygmIwESIAFvI0CB8LYzzv6SAAmQgI0EKBA2gmIyEiABEvA2AhQIbzvj7C8JkAAJ2EiAAmEjKCYjARIgAW8jQIHwtjPO/pIACZCAjQQoEDaCYjISIAES8DYCFAhvO+PsLwmQAAnYSMDfxnQOSXbkyBFZtGiRKvvo0aMSGRkpUVFR0r17d4fUx0JJgARIgARsJ+AygYAw6OKA5kIcIBL4QDggEhALey05OVni4+MlIiJC/P2d112TySTp6ekSFBRkbxcKnD81NVVQf0hISIHzMgMJkAAJ6AScN2LqNWrfujhAFLILgX4M3/YIRGJioqxbt07Onj1rrrlq1arSrl07CQwMNO9z1Mb+/fvl8uXLctttt+VbBUSxZMmSSsTyTWxDAvR527Zt0r9/fxtSMwkJkAAJWCfgMoFAcx577LEcrdLdS7pQ6L9zJMxnBwZoXEUPGjRIgoOD5cyZM7J+/XrZuXOntGjRIp/czj184MABNYPCLIdGAiRAAu5CwOkCAfcRLK+BH8cgELqryQisY8eOSc2aNSU0NFRlx+wBgoGZhW64cj9x4oT4+PhI9erVVXocg2sIAnPu3DkJCAiQihUrSq1atVS2PXv2SLFixSQuLk65cOrUqSPYd/r0aQkLC1NlVK5cWaVFObt371bihDxNmzZVedXBW38gDlevXpXDhw+rY1WqVFFtOnnypMA9Vq5cOalXr55qB7JgP9oN9xHaFRsbq8q1LBPbqHvv3r0qPQSyUaNGaoaydetW9V2jRg2V5cqVK6r9bdq0yeKCO3XqlGKVlpam2o/6mjRpIsWLF1f5wM1aG9FfMAcf9Av1lChRQtWBNqEvaDcM52LXrl1mF2D9+vXN50sl4B8SIAGXEnDbVUx6TMIoHQxCGLg3btwoGOySkpLUVXpMTIwqEgPzhg0bpGzZsmpgXr16tRw8eFAdwyCH4xAYDPaYeVy4cEEdw/eqVavk4sWLyi2EARdiUrduXSUQS5cuVQM7EsPVAzcTysFAjrZkN8waMICXKlVK5Uf5K1eulNKlS0vt2rUFQrdv3z6VDf1YsWKFlClTRgkGtiEs1uz69ety/Phx5aa7efOmLFy4UDIyMlRS9E83lI+02eMzGNzRXr39aJfe/rzaCFFds2aN+Pr6Kj5w8y1fvlwJHVx7ixcvVu1AnOTPP/9UdUNEMMPDb+ynkQAJuAcBp88gbO02rpLtsVatWqkrV1zpYrCH4Woc+zEYY2DHVXWDBg3UMVz1QiAwKGPQrlSpkhqIcRWPK2AIQvny5VVafPfo0UNwdY0Br2PHjupKGQdxlYyrchjK7Ny5s5qhYADesmWL2m/5BwIFgYAgoB6UiTzVqlVTgyVE5vz586qtEApcZesih3L0GZllmfo22qXPan777Tc12GMwhnBeu3ZNzQaQv3HjxnqWLN+YLaAMzLD8/Pxk8+bN6jhmVbm1EQnAp1mzZkoI0GYwRbtRJwQJMwf0C2KAcsAG8aZff/1Vzdow26ORAAm4noDTBUIPPOflPoJ7CZaXGyo/dLiCxeCPDwYiXKFu375dXZ337NlT7YNIICYBQxr9KhoDO4K8EAVrV7S6i+TGjRsqLwLMusGNBLt06ZK6gsbgCsNqJmtlqYMWf1A3ZiSY3eDKH22CeMCwGis6OtqcGoKXm0CgHIgDTC8DbcJAHR4ermZVyI864F6zZkhnrf15tRHl6HyQF3VjxgODyMAgougLeEydOlXt0/9gpkcjARJwDwJOFwh0W48xQAiyiwAGPF0g4GYyYrjqnzJlivTu3VvNBjBIYRDE1bnu/kC5bdu2Ff1qNSUlRQ2WcMPAhYRZRt++fZX7CbMES9MHTQyUMAyyumHGgoEVBpEqqEGwMJB369ZNzSgQR8DVNgwuGssYCvqZm6E/uqFP+lJf7IPI4Eoe7Ub/c1uKm1v782ojygfv/AyzEPDr06ePOWlCQoJZ1Mw7uUECRZzADz/8kGsPEePEOOUqK/gIVggthShg8IcQfP311+aANLa/+eYbVYNRcUBmDKRwj2AWoF+R4hs+eQz8OA43CAZzXM1COHDFDlcUBlMMwhUqVFBlwN8OF4/uv7fsvi48yIfBFgM74gcY/ApiEBx9sEfdaCM+2IZg6nWjTfiN+ADcNfrsx1pduDo/dOiQ6htmJPiNGQMMYokgMlxNRjjn1UZrbbG2D31BOeALXohdLFiwwMzBWh7uI4GiSKBXr15qjMHFoOXH1eIA1vlf6jnojGCJKwQCH8t4AwYsfYYBscB29llGfk3CgNulSxc1E5g2bZo5OeIK8HnDoMoIKOvHEXfAPRK4asZqHQgGYgZw08CHvmPHDsEKo+zWsGFDFYeAqwSCARcTxAlt0Gca2fNk/41yIWZwwcAFtGTJEkHMAIZVP1jpAxFCu7A9f/58dQyDLAZ6a4a4Bv6xIcAO0/uGbbQPYoG8+oor7Le0vNqfVxsty8hrGwKN2AcC7bq1bNlSzZr03/wmAW8ggP+LDz/8sEyYMMH8/3nAgAEunTno3H0iI6MyLFe16Afy+g4I8LfJjZBXGZbHLP3oljEKfTZhRCRQPq68ESeAuwVxguwuExzHCh6Y7q9XP7Q/WBKLj6UbCa4Ya4O+Xg+Wslo7rpeZ1zdmELiSRhv1dulCg/ZjP2YOECG4sPAbMwQsr83rZjzMNLBENbvbZ9myZWowRjDZiOXWxuz15Fc2+oZzhL4WdOaVX9k8TgKeRAAxT4gELmIL260ED4LJVLAVglgM4xYCkdtJhHDYKxK5le2J++Ei27Rpk1rRBIHAqiKsytJF1ZY+QWRw/wJmRAMHDsxxX4YtZTANCZCAYwjATY2VjYVtRgXCJTEIWzuPgW/UqFEque6OsjVvUUyH2EHz5s3VclX8Q4LbqCDiACaIuSBecuedd1IciuI/EvbJowk4QhzsAeKyGIStjdZFQp9J2JqvKKaD+woxGiOBZZ0HYi2YddBIgARIID8Cbu1iyq/xPE4CJEACJJA/gSLpYsq/20xBAiRAAiTgKAJuHYNwVKdZLgmQAAmQQP4EKBD5M2IKEiABEvBKAhQIrzzt7DQJkAAJ5E+AApE/I6YgARIgAa8kQIHwytPOTpMACZBA/gQoEPkzYgoSIAES8EoCTrlRDk9LxaOcaSRAAiRAAvYTwPPY9Per2F9a7iU4RSBQPV7WQyMBEiABErCfQKdOnewvxIYSnCIQULq8njhqQzuZhARIgARIwMkEGINwMnBWRwIkQAKeQoAC4Slniu0kARIgAScToEA4GTirIwESIAFPIUCB8JQzxXaSAAmQgJMJGBIIvG6SRgIkQAIk4BkEjI7ZhgQiPZ0C4Rn/LNhKEiABEsCbJI2N2QYFIl2MKhJPFgmQAAmQgPMIYKzGq4aNmCGBQEUmU6qR+piHBEiABEjAiQTsGasNCwQen5GamubEbrIqEiABEiCBghDAGI2x2qgZFghUaDKZNJHgTMIofOYjARIgAUcRyHwPtcmu4u1+1AamL2lp6eLv7+eUh0fZ1VtmJgESIIEiTkD37hiNO1jisVsgUBgakpKCIIhJfHx8tI9lFdwmARIgARJwNAHcfVDYi4cKRSAsO44G8jYJSyLcJgESIAHPJGBXDMIzu8xWkwAJkAAJ2EKAAmELJaYhARIgAS8kQIHwwpPOLpMACZCALQQoELZQYhoSIAES8EICFAgvPOnsMgmQAAnYQoACYQslpiEBEiABLyRAgfDCk84ukwAJkIAtBCgQtlBiGhIgARLwQgIUCC886ewyCZAACdhCgAJhCyWmIQESIAEvJFCoj9rwxXOYfKk5XvjviF0mARJwAwIZ2nPx0gvxWUeFIhCZT3L1F19fPqXPDf6NsAkkQAJeTACvF01LSy2U9/XYLRCBgQF8zLcX/2Nk10mABNyLAC7UfX0DtI+v9pRt+94HYZc/KDAwkOLgXv822BoSIAESUAT8/PwEY7Q9Zlgg/P39NXEwnN2eNjMvCZAACZCADQQwRmOsNmqGR3jEHWgkQAIkQALuTcCesdqQQECV8OY4GgmQAAmQgHsTwFht1NtjSCB8fAxlc2+KbB0JkAAJFFECRsdsQyM9Jw9F9F8Ru0UCJFAkCRgdsw0JRJEkyE6RAAmQAAlkIUCByIKDP0iABEiABHQCFAidBL9JgARIgASyEKBAZMHBHyRAAiRAAjoBCoROgt8kQAIkQAJZCFAgsuDgDxIgARIgAZ0ABUInwW8SIAESIIEsBJwmEOlpaXL9bKz6WLYgOf6G2peWbN9TBy3L5DYJkAAJkID9BJwmENfOxMrEdk+qz/Gl28wt3/C/qWrf2c0HzPty2zi1epes+c8kid1/Mrck3E8CJEACJFBIBJwmEJbtXfXWT5Kemma5y6bt89sPy9Zv5kj8yQs2pWciEiABEiAB4wSMPwfWeJ1y9dg52T1psTQa3jNHKZf2HBcIyJn1e6V4xQiJvrONtP2/e+T0ur2yd8oylX7juBniHxwkVdo3kO3j58meyUslOSFRqrZrIB3fGC6hZUoIXFo7f1goh+auk+vnY6Vq+4bS/In+UiqyUo46uYMESIAESCAnAafPICq3qS8la1aUdR9MlptXrmVp0Y2LV2Vy738pcajQtJakJCTJ9gnzZNlr4zVBCJTA0GCVPrB4iPgFBciOiQuUywniEFGrshycs1amD3lTMtLS5eiCTUpogksVV+Kwb9oKWfPupCz18QcJkAAJkEDuBJwuEBjoO2lX+Sk3kmTjuOlZWrZ/xkr1u+EDPWTIzLfkoQ1fqt/7Z6yS0nWrSnSftup3k4fvlMqt68nOnxaq372/fUF6fPyklG8cpWYn57YelFNrdqljgcVCpJaWr+e4p6V2//ZqZqEO8A8JkAAJkECeBFziYqrepYnggxlAxRZ1zA2MP5EZW6iizTJgmCng+DktgJ1w6qI5HTYwS0g4mblv2qAxWY5dO31J6g3pIgdnr1WzCswsYO3+dZ/4aq/ho5EACZAACeRPwCUCgWZ1fP0BObF8uxr89WYWK1dSbcYdPqO+IQKx+06q7dAymcf0tD7aS4tCSpeQpNh4GTzt3yrukHI9SVK15bJwYSWcuqBmDWmmVC1+sUd2/rhQ1r73q9Tq3UbCq5bTi+E3CZAACZBALgSc7mLS21EqurI0GdlL/6m+I3u0VN/bvp2rYhRzH/mvckUhHhFWqbT4+Ga+xe7oX5sFs42atzfLTP/dXDmxYofMuGesYDaRronC7l+XyJyRH8j5bYekWsdGSjSyVMYfJEACJEACeRJwmUCgVS2fHiiIEcDwWryyDWrI7e+PUqKw+ctZgvslytStJj0+eRIJVLAZ6RFwxiqn9q/eLzW6NpUjCzfJijcmqnx3fvGcFCtfSpqN6qtiElgWO/cf/1WxibYvDeXsQdHmHxIgARLIn4BPZGRUxu7du/NPaZEiIMBf/P0d551KSzFpLqJLElAsWIprgz3EQTfcP5FyLVHFJ3y1dsASL8dry1xvSIlq5cXXP2uMAbELU2KytmS2tASFh+rF8JsESIAEvIZAamqqmDTPSkEsJiZGHDfKF6Ql2dL6BQZIqSjr9ytAAIJLhWXJgfse8LFmjDdYo8J9JEACJJA/AZe6mPJvHlOQAAmQAAm4igAFwlXkWS8JkAAJuDkBCoSbnyA2jwRIgARcRYAC4SryrJcESIAE3JwABcLNTxCbRwIkQAKuIkCBcBV51ksCJEACbk6AAuHmJ4jNIwESIAFXEaBAuIo86yUBEiABNydAgXDzE8TmkQAJkICrCFAgXEWe9ZIACZCAmxOgQLj5CWLzSIAESMBVBCgQriLPekmABEjAzQlQINz8BLF5JEACJOAqAhQIV5FnvSRAAiTg5gQoEG5+gtg8EiABEnAVAQqEq8izXhIgARJwcwIUCDc/QWweCZAACbiKAAXCVeRZLwmQAAm4OQEKhJufIDaPBEiABFxFgALhKvKslwRIgATcnAAFws1PEJtHAiRAAq4iQIFwFXnWSwIkQAJuToAC4eYniM0jARIgAVcRKDICER8fL1euXDF/UlJSCoVpamqqoGxrhvrS0tKsHTK0z2QyqfajTktLTk7OtQ2W6bhNAiRAAoVJwL8wC3NlWf/5z38kPT09SxNKlCghTzzxhJQqVSrL/oL82LFjh0ydOlXee++9LNkgDKhz+PDh0qBBgyzHjP5YvXq1zJ8/X+rUqSMjR440F7Ns2TJZuXKlvPvuu+Z91jbQpunTp0v37t3t6rO1srmPBEjA+wgUmRkETl3btm3lzTfflNdff10GDx6srrrnzZvnkLPq5+cnQ4cOlerVqxd6+QcOHJCDBw8WuFzMQDZv3iyxsbEFzssMJEACJJCdgFNnEEeOHJFvvvkmexus/h41apRERUVZPZbbzoCAAAkNDVWHW7VqJXPmzJGEhARz8lWrVgmu0m/evCk1a9aUu+++25w+r2PmArSNyZMny7Vr12TEiBGyZs0aKV++vCrj008/lfbt26vyExMTpWHDhtK/f3+V9erVq/L7779LXFycmh34+PhIdHS0SmNZNrZxrGTJkjJp0iR54403xNc3p4aD46xZs5QAlilTRgYNGiSVK1eW7777ThWHGc+wYcOkatWqsmfPHlm4cKEkJSVJZGSkEk5wggsOs5Xdu3erOjp06CAdO3bM3hz+JgES8GICThUIDPgY+G2xgooDyjx9+rRs2LBBcCWNK3D47jt16qSqw2AOwahRo4ZgMPzrr7/ks88+k5dfflkN9Lkds2wrxO3YsWPy5JNPqkH11KlTgsG/QoUKcu7cOeXeQdknT55UZdauXVsJwkcffSQYlJs2bSpbtmwRCEhwcLBVgUB9EJ9PPvlE5s6dK/369bNsgly8eFGJLNxn3bp1k02bNql+jB49WmJiYgRtghCEh4cLZiI//vijEkMIyNatW+Xs2bPywgsvyNKlS1XeO+64Q06cOKHYQDSrVKmSpT7+IAES8F4CThUIYDYy8Nt6ejDQYaDOyMhQ4oCrcVztwzAg4ooaMQkYrtJ//vlnNeDmdUwl1v589dVXaiB9+umn1dW6teA0Bmz4/2GvvPKKEgrMViBUGJRRJwTrnXfeUWly+1OxYkVp3bq1mo3AbWZpixYtEri3XnvtNbUbx7G9ceNG5WLDrKB58+YCARk/fryq8/HHH1dpISAQDIja8ePH1WxFF0yIWWBgoGVV3CYBEvByAk4VCEe7mODi6dOnj/mU/vDDD/LHH39ImzZt5Pr169KyZUvzMf1KGW6fvI4hA4LfmDnAMDjnZrhK1w2DLYThwoULKg/EAYaBOygoSE+W6/ddd90lCJBjQMfArhtmEJix6IaZCepCP7IbVlnBlYRZkqUh7cCBA9XMY9y4ceLv7y8QiGbNmlkm4zYJkICXE3CqQDjaxZT9XGI10N69e1UcIiwsLMsgClcLDO6YvI7t2rVLpcMM4Msvv5SJEyeq2YHame2PNfEICQlRS2EhFrowwAWWn6EsxBEwC9i2bZs5OcQBQqsbyoIIoK/ZDeJRrlw5tdIKx5AWLijMpDDTwiwHS3jhesIqKayWwiyIRgIkQAIgkDMC6mAuEAlbPkaagStmuE7wweol+PDhi8encePGKmCLwRUzguXLl0vZsmXV1XdexxQkLVCMYPT999+v7lNYvHixzc3DlTls5syZaqYybdq0HMtxcysMeevWravq1NPA9YTAO2ItsBUrVihXUb169cwBbT0wX6tWLRVzuHTpkpolzJ49WwXLEfieMmWKcrFhCXCPHj1UjAQzKRoJkAAJ6AScOoPIy8WEK/nHHntMb5ehb1zt61f8GAQhACO0gC8Mvn9cKeurqHCF/vDDD+d7TCW49QcDNgZdxAHg54chzpGXIZ6A1UwQFdRfvHhx5XKCWye7WSvr3nvvlbFjx5qTghOW1uJ+B3xgPXv2VGWiTxjwsdIKsxW4kTBj+Pbbb1U6MMHSXKS78847lUCMGTNG9QEiCqGgkQAJkIBOwCcyMioDSx0LYgEB/uqKtCB53CEtZg5wreAb8QLLJaR5HbOn7bgqRywBy24RPIcwvPrqq/LQQw9ZdQvZWhfiCJgxIZaiu670vJhBYMDXDXELtAOuJbiddEOg/fDhwyqmgdgIjQRIoGgSwNMZTKasT2jIr6eIfea8jM0vlwcfhyBYBpItu5LXMct0Bd1GDALuLqwygitr+/btSpiwesgei4iIEHysmaU44DjiEPhkN8wkrMUusqfjbxIgAe8k4PQYhLdhxiD86KOPCm5owz0L+H7++edzXPV7Gxf2lwRIwP0JeNUMwlWnAzGDBx54wFXVs14SIAESMESAMwhD2JiJBEiABIo+AQpE0T/H7CEJkAAJGCJAgTCEjZlIgARIoOgToEAU/XPMHpIACZCAIQIUCEPYmIkESIAEij4BCkTRP8fsIQmQAAkYIkCBMISNmUiABEig6BNwyn0QeKTD+vXriz5N9pAESIAEnEAArzDATbiONqcIBDrhyBcFORoSyycBEiABbyTgFIGA0lm+5MYbQbPPJEACJOBpBBiD8LQzxvaSAAmQgJMIUCCcBJrVkAAJkICnEaBAeNoZY3tJgARIwEkEKBBOAs1qSIAESMDTCFAgPO2Msb0kQAIk4CQCFAgngWY1JEACJOBpBCgQnnbG2F4SIAEScBIBCoSTQLMaEiABEvA0AhQITztjbC8JkAAJOIkABcJJoFkNCZAACXgaAQqEp50xtpcESIAEnESAAuEk0KyGBEiABDyNAAXC084Y20sCJEACTiJAgXASaFZDAiRAAp5GgALhaWeM7SUBEiABJxGgQDgJNKshARIgAU8jQIHwtDPG9pIACZCAkwhQIJwEmtWQAAmQgKcRcMorR50J5fr163L06FFJS0uT6tWrS0REhDOrd3hd6enpEh8fLyEhIRIcHGyuT99fokQJ8fWl7pvBcIMESMAwgSIjEBggJ0+eLNu3b88Co0mTJnLfffdl2VeQHxCa6dOnS/fu3aVUqVIFyeqQtJcvX5YPP/xQCcSYMWME7/uGnTlzRj777DN54YUXpHz58nnWvWjRIqlWrZrUqVMnz3Q8SAIk4N0EnC4QGJxsscjISImKirIlqUozc+ZMJQ69e/eWjh07ys2bN2XJkiWyatUqqVKlinTq1MnmsiwTmkwm2bx5szRr1swtBEJvW1JSksydO1f69++v77L5e82aNZKYmEiBsJkYE5KAdxJwqkAcOXLEZsoFEYfU1FTZuHGjNGjQQDp37qzqCA0Nlb59+8r58+fl0qVLat+kSZOU6LRp00b9njdvnroC79mzp1y8eFEgXocPH5bixXABevYAAEAASURBVIvLXXfdpdJ+9913Ku3UqVNl2LBhUqlSJZk2bZrs379fuXKaNm0qvXr1Utu//fablC5dWk6cOKHKwzGI04IFC5TLC7OQFi1aqPLQJpQZGxurrvgHDhwoZcqUkdOnT8usWbOkZcuWSuCeeeYZ1R6VyeIP2oGBvm3btlKuXDmLI5mbYI1y4I5CuYMGDZLKlSurfRCXLVu2qP3t27eXPXv2yMKFCwX7IcyDBw+WgIAASUlJkfnz58vu3btV/zp06KDEN0dl3EECJFAkCThVIDDoF2Tgt5U4RCAjI8M8+Frme+SRR8w/Mfhb+u2PHTsm/v6ZCCZMmKC2b7/9djVjgDC8++67EhMTI6dOnVIDZ3h4uEycOFEOHTokzZs3F/xetmyZGkgxwGNQ3rZtm7oyx6C9fPlyNbAiLcqYMmWKmolgdvPRRx+p/HCBrV+/XrmN/v3vf0tCQoKcPHlSpQerwMBAc/stN/r06SM//vij/PTTT/Liiy9aHlLi9M033wjiEd26dZNNmzYp99Po0aOlVq1aSkwhGhCMAwcOqHJq1qypfm/dulXOnj2rXFVLly5Vee+44w4lenPmzBGkg+jRSIAEij4BpwoEBlBbXUy42rZVTHCVDAsLCzN8xjAww3ffsGFDadWqlWzYsEEwM8EVOq6iMchDXA4ePKjiEWgf7OrVq0pQIBAwtGHkyJGCmMi//vUvqV+/vgwZMkTNDMaNG6cGb7isIGj//Oc/VZmYwbz++utqMNaD6kOHDhXMQHIzCBtiKxCsdevWZRm0wRixiddee01lRx+wjVnWbbfdpkQHAfwaNWoooSpZsqQ8/vjjKi0EEcKDfh0/flx8fHxUOsweateunatg5dZO7icBEvBcAk4VCGCyddC3NR3KrFChAr6U2wfBV0vbuXOnYGVTu3btLHerbQSg9RkEXDBw+bzzzjsC9xQGVVy942pftwsXLqjNevXq6bvMV936Dr3dWEmEwTU6Olod0mcCEJ1z584pgXjjjTf0bOr7ypUr5lVXjRo1ynLM2g+0AzOCP/74Q0aMGGFOAneZzgQ74S5C/XFxceY0+gbqhCvp5Zdf1nepb6SF6CHwDWEDJwgEYjE0EiAB7yDgVIHA4KkPoIWJF35/DMa7du2SHj16ZCkaK5swI9ANV+664SoZswYEorFC6e233xa4ndauXav8/7iaRtm66auDEDfQ3Sxwx+AKXLegoCB9U32jXdkNMxFc4WOGoRviFigT7jKYvjpJP57b9/333y9vvfWWzJgxw5wE4mAZ70H/IALWVi1BPOAOGz58uMqPtHCHVa1aVQnZK6+8ouIYcD2tXLlSudTgtqKRAAkUfQJOXTCPQevrr7+2+rHV9ZTbKcGghSt8XE3D5YTloF9++aVyE+kDGnzyCC7j6hhBWswsdIPPHvEECBhcPjCs9NHvKYALCoM/RAJtRRk4jgAuguMFMbixMHvB7AazFbTll19+UfGHgpSDtMjfr18/wUxAt9atW6uy4CaDrVixQgmoPvOBaOl9xwwEIoegOWYJs2fPlt9//131GzGTn3/+WYknhBdioufT6+I3CZBA0SXg1BkEMOY2g8DqGXsMMQFc2a9evVp9UBYGPKw8wqokWNeuXdVA/N577ymXS7FixdR+DHxYGouBf/HixWofBk58YJhdYCYCgUBwGH5/lAFDzKFLly5qG3+yzxiy/0YaBKaxcghBX3xgcGnV0GICe/fuVb9z+6OXp3/reTHr0V1gYIkYA+7fwAcG0dNnJZhJYEaAfsONhBnDt99+q9JBEBH/QNo777xTCQTut0B9CMpnn6GpTPxDAiRQJAn4REZGZeAquCAWEOBv9t0XJJ8z0sKVgitiXFlbW/6JGACu/q0dw9UxbjjDSh09ZqC3GTMIDJAwuGGQLrc69Dz5faNMPV6gi1h+eQpyHP3EzAKuq+yuL8yyIJB6DAbtQP/hWoJw6IaZDlZ/wW2FGRiNBEjA8whg3DOZUgvUcLjYi5xAFIgAE5MACZCAFxAwKhBOjUF4wXlgF0mABEigyBCgQBSZU8mOkAAJkEDhEqBAFC5PlkYCJEACRYYABaLInEp2hARIgAQKlwAFonB5sjQSIAESKDIEKBBF5lSyIyRAAiRQuAQoEIXLk6WRAAmQQJEhQIEoMqeSHSEBEiCBwiXglEdt4G5cvAiHRgIkQAIkYD8BPB1Bf3SO/aXlXoJTBALV41EONBIgARIgAfsJQCCcYU4RCCgdXqFJIwESIAES8BwCjEF4zrliS0mABEjAqQQoEE7FzcpIgARIwHMIUCA851yxpSRAAiTgVAIUCKfiZmUkQAIk4DkEDAmE5XudPaerbCkJkAAJeCcBo2O2IYFIT8/wTsrsNQmQAAl4IAGjY7ZBgUiX9PR0D8TEJpMACZCAdxHAWG10vDYkEMCLV9jRSIAESIAE3JuAPWO1YYFIS0sv8Euw3RsjW0cCJEACRYuAyZQqGKuNmmGBQIXqRdgpJqN1Mx8JkAAJkICDCJi0sdme2QOaZfejNlK1B/Gl3UxXD47y8/MVX1+7NMdBqFgsCZAACRR9Aog1YMaAB6QaXblkSclugUBhaAiUimEJS7TcJgESIAHPJsDLfc8+f2w9CZAACTiMAAXCYWhZMAmQAAl4NgEKhGefP7aeBEiABBxGgALhMLQsmARIgAQ8mwAFwrPPH1tPAiRAAg4jQIFwGFoWTAIkQAKeTYAC4dnnj60nARIgAYcRoEA4DC0LJgESIAHPJkCB8Ozzx9aTAAmQgMMIUCAchpYFkwAJkIBnE6BAePb5Y+tJgARIwGEECuVZTHrr/Pz8xMfHR/voe/hNAiRAAiTgDALaI/HUc/HwoL7CskIRiIAAf/H3L5SiCqtfLIcESIAEvJRAQOarGLR3Qdhrdo3qmC0EBgZqj/jmlMHeE8H8JEACJFBYBHDB7uvrJykpKXY99tuuGATFobBOJ8shARIggcIlgAt3jNH2mGGBgFuJMwd70DMvCZAACTiWAMZojNVGzbBAMOZgFDnzkQAJkIDzCNgzVhsSCKxWopEACZAACXgGAaNjtiGBQHCaRgIkQAIk4BkEjI7ZBgXCM6CwlSRAAiRAAmL43jRDAkHgJEACJEACRZ8ABaLon2P2kARIgAQMEaBAGMLGTCRAAiRQ9AlQIIr+OWYPSYAESMAQAQqEIWzMRAIkQAJFn4DTBCIjLV2un42VGxeuWKV67exliTt0WtJteMBUalKyJMXG25TWamXcSQIkQAIkkC8BpwnEjUtXZWK7J+W3Xv+y2qjlr38vk7q/KPGnLlo9brlz67dzZXzzUXJy1S7L3dwmARIgARIoRALGH9JRiI1AUdG92kjpOtUkuGRYIZfM4kiABEiABIwQcBuBgHvp3JaD0uiBHhJ74JSseGOiVGlTX66euCBn1u+Rah0bS8tnBkp4lbJZ+mlKvClLXvpGkuOvS9NH+moiU1V2/rhQDs5dK/5BgVKtUyNp++I94h8SlCUff5AACZAACeRNwGkuprybISr+cG7zATHdTBYM+mfW75UN/5smJ1fulLSUNNk7ZZka+C3LSdfenLTwmc/k0Nx1UjKykhKDdf+dLJu/nCXVOzeR0LIlZPv382T3b0sss3GbBEiABEjABgJuIxDW2lqmbjUZvupTuXfee+rwkYUbsyRb9dZPcmzxFonq2VI6jRmujp1akxmXCC0dLi2eHCDdP3pCIqKrZMnHHyRAAiRAAvkTcGuBKN+0lgSEBktImXDVE9ON5Cw9SjiZGdBOTTaJj19mVyAKMMw+Zt3/tqz7cLJkpKdnyccfJEACJEAC+RNwa4Hw9c27eZg5hFcrJyeWb1cziTRNKErXrip9xv+fdPvwcYnu3Uaun4uTpa98q4mE9kZvGgmQAAmQgM0EnB6kxv0Lsx94J0sDWz4zKMtvW3/Uv6erFp8wybzHPpblo7+XYUs+lkUvfimYWXQe+5BE39laDv+5XnzteKOSrW1hOhIgARIoagScJhCWzyPPfv9CzLAeZq4+lrOGfF474aO9Tg+ziIot6ggC3Fi91HH0g7JizATtM1GVGVgsRG57+x+CtDQSIAESIAHbCfhERkZl7N692/YcWkq849Se19gVqDIDieFOwrJZ3wA/Ca9cVvyCAgyUwiwkQAIkUDQIpKamismGp1RY9jYmJkacNoOwrNjR25gt4H4IGgmQAAmQgHECeUeBjZfLnCRAAiRAAh5OgALh4SeQzScBEiABRxGgQDiKLMslARIgAQ8nQIHw8BPI5pMACZCAowhQIBxFluWSAAmQgIcToEB4+Alk80mABEjAUQQoEI4iy3JJgARIwMMJUCA8/ASy+SRAAiTgKAIUCEeRZbkkQAIk4OEEKBAefgLZfBIgARJwFAEKhKPIslwSIAES8HACFAgPP4FsPgmQAAk4ioBHPKzv2pnLgk/K9UTJyOCLf3L+Y/CRgJAgKVYhQkpFVsx5mHtIgARIwAABtxWIg3+slaN/bZKEUxclrFIZCa9aVgLDimnvdTDQy6KeRdNMU2KyXDsXK1ePnZPg8GJSo1szqXNXRwkKDy3qvWf/SIAEHETA7QRi+/fz5OAfa6TGbU2l1bODJaJWZQd1vegWe+PiFTmyYJP88eC7UqlVXWn59EBNXCkURfeMs2ck4BgCbvPCoPPbDsmqsT9JpPaGuOaP9XNMb72w1AOzVsuOifOlycheUrtfey8kwC6TAAl49AuD9k9fKXt+WyK3fzBKmzFU4dksRAJ17uogUXe0kuWvjZe4g6elzYv3FGLpLIoESKAoE3C5R3/Pb0vl2OItMmjavykODvqX5h8cKN0+ekIL8IuseutnB9XCYkmABIoaAZcKxPGlW+XIwo1y51fPFzWubtmftv93j/j6+ciWr2a7ZfvYKBIgAfci4DKBSI6/IRs/nS7dP37CvYgU8da0f3WYnN10QE6v21PEe8rukQAJ2EvAZQKx9oPfpNmofhISEW5vH5i/gAQ6jXlQ1n0wuYC5mJwESMDbCLhEIGIPnJLr2pr96F6tvY23W/S3RI0KUq1jI9k3bYVbtIeNIAEScE8CLhGI3b8ulkbD7ygQkTPr9wo+Gz6Zpj7YNmq4qSwpNj7f7CnXk+TmlWu5prt+Lk7SU9NyPW7rgaS4BElPyywH7dK388qPPqB9Rq3xiDtk96TFRrMzHwmQgBcQcIlAXNh+WKp3bmwzXojCjKFj1Wfjp9O02EXmb+w3YvOf+ETGNx8ll/YczzP7rp8XybLXv881zcS2T8iVw2dyPW7rgfHNHpUL248oYUC7Lu48mm/Wrd/OkZVv/pBvutwSBEeESXi1cnJ5/8ncknA/CZCAlxNwukCc3bRfyjepZTN2iAAEwZph/2c1hqqZhbXj1vbhqv/E8u0SWCxE3bFtLY2r9vn6+sqAX0dLRLRz7h7H3eqnVu50VXdZLwmQgJsTcPqjNi7sOCIVm9kmENbEYeDkMbLxf9PktIWLCb8HaPttsQOzV6v7LeoO6iTbvvtT2r40VFv66aeywrWz7du5cmbDPikVVUm7ok/PUuSl3ce0u5IXqIcG1urbLsux7D/Oa7Mk3AAYe+CklG8cLQ3u7ao9SK9S9mRZfuM+BbQvrHIZ9WiMzV/MUg/fO7Nxn5rtlGsYKW3/b6jgvgZLM924KWve+1VK160qDe/vbnkoz+2KzWrL2vd/zTMND5IACXgvAafPIPAwuVI2XiGf3ZAzzlC5Tf0cZwtiYVNMQhuBEf+of89tEn1naxWHOL3m7+WeWHa7+fNZUqFpLUm5liQ7f1hgruvm1esyuc8rcuNinPZ8o3qCVVi5GZbwzr7/HcGdac21lVoJJy/IslfH55bcvD8jI132/r5MEJOAnVqzS+Y9/okEhAZrz6ZqJnhO1a5fFpnTYyPlWqLMHv4fuXLkjNQd0DHLsfx+wMWUoD0ll0YCJEAC1gg4fQaRFJsgoWVKWGtLjn2Ws4QqFsJQqXWmSFgez5HZyo5zWw9pg/VFqdWnrRTXHo1dvnGUHJi1Sqp1aqRS47lF7V8bJjH33a5+xx06bS7l9Jrdyi3V78dXtSfK+kjpOlVl1jBNBKxYemqqtH15qLqaz5AMSdIC3Ytf/ErFGPTZipVsVndBzDBrgCWcuiCxFjEDCAna4K896rvv9y+pb6uF5LUT0xYaCZAACVgh4HSBSDeliW9ApkvHSnvMuyxnBBAHSxdS6+cHq3SWLqjT6/aKtdmFuUBt48CMVernvFEfqe8rh88KXF5d3hopiZpwQTwqa08/1a1KuwZy9fh59fPEih1SU3uENsQBViEPN1lQyeJyM+6a/HTbc6rMkNK2CaIqONufUlF/xyOCS4bJ1ROZ7UGy40u3qdRlY2qKb6DTT2W2lvInCZBAUSPg9FEloFiQwGee3w1yloM9ZgoIRsOePj5ZZmormrLPHqq0zel6sjxZqUnJsmvSIvXo64rNa6tDaSkm+fPRj9R7J/AUWdiNS1fNLrD4ExfUPvwJr1JWTq7+O6CbcOqS+Vj2jaMLN8sGLS7S78dXpFLLulr84JhMH/Jm9mQ2/fb1z90LWLFFHe1O9Cflp07PyPbx87QbD/vaVCYTkQAJkIAtBHIffWzJbSBN8Qql1dvhbMlq6VbKL72loFhLe1R7ICCs2aN9pHqXJuoT2aOl1OjaVPbPWKn8/NG928iOCfPlxoUr2szisJxYtt1cVGSPFnJ24371YEEI3K6f/jIfy76B9zFg1lC5dT3tUIbsuBXLyMgW9M6er6C/S2o3vJXQ4gidxz4ka/4zyTzbsbUcCKRfYICtyZmOBEjAywg4XSDgu7+876RNmFs9l+lKskxsbfaAFwvlZ/umrpA6/dvneHFObW010slVu5Qo4D0Up9fukQmtH5cp/V+XSq3/djeVrltN6t99m8z9x3/l6wYjtOBu7jMIvHchRLvP4Ku6D8rX9UcIBnIsq/3r+S/ya2bmcZ9MN9atH/nmibm/m8DNtPRf3+ab1jLB5b0nVCzFch+3SYAESEAn4PQXBsFts+bdSdLrm3/qbcjz2zLOYC0hxEGPSVg7XtB9ackmiddWHcGlhOBvdsN9FBnp6WopavZj2X/Ha/GL4hVLi19QgKTeTBGUHVSiWPZkLvu95as/tNe5lpbamnDSSIAEii4Boy8McvoMokT18tpS0Ss2PyYCgz/iDtlnCXA/4Z6IwhQH/PPAYI6XFlkTBxwvXjHCJnFAWjzzCOXBcO+CO4kD2oR3fte4vRk2aSRAAiSQg4DTg9RoQZ0BHWTP5KXS9B+9czQotx0QgsIWg9zq8ob9+s2AgcVDvKG77CMJkIABAk6fQaCNjR7sKYfmrC2UB90Z6DOzaAS2fTdXGmkP7KORAAmQQG4EXCIQaEzMfd20xzzkfjdybg3mfvsJHJi5Sos9lJFyWmCbRgIkQAK5EXCZQOAOYbwT4vC8Dbm1jfsdQACP5Njxw0Lp8PowB5TOIkmABIoSAZcJBCDe/sFj2sPx5tj2HKWiRN1FfUm8HC+LXvhKOv97BO9/cNE5YLUk4EkEXCoQAaFBcscXz6knkR67dSObJ8HzpLbGae+twD0cbf55t/a49WhPajrbSgIk4CICLhUI9BmPtu6vPZJiz29LZeO46S7CULSrxWPHF6uZw0PmBxMW7R6zdyRAAoVBwOUCgU7g/oA+3/+fBAQHyZS7XpeDs9cURt+8vozT6/bInIfel4u7jsrgaW+qp9d6PRQCIAESsJGAj2h3Ukdn7N69y8YMmckCAvzF398xt1DgceDbJ8yTU6t3qfcuVO3QUK22CSkdXqA2emNiPCPq8r4T6kGGxxdvlYg6VaTx8J5Spn4Nb8TBPpMACdwiYOxO6obuJxCWZ/Sk9jrMM9pLg/DMoCTt8dl48B0tdwJ4sRCedYUnyOIhhLndDZ57CTxCAiRQFAkYFQjHTAMKiTBe5KO/zKeQimQxJEACJEACNhJwixiEjW1lMhIgARIgAScSoEA4ETarIgESIAFPIqAJBP36nnTC2FYSIAEScA6BDOEMwjmkWQsJkAAJeBwBCoTHnTI2mARIgAScQ4AC4RzOrIUESIAEPI4ABcLjThkbTAIkQALOIWBIINLTGdh2zulhLSRAAiRgPwGjY7ZBgUi3v8UsgQRIgARIwCkE0tONjdmGBCIjI0PS0tKc0jFWQgIkQAIkYJwAxmqM2UbMkECgIpMplbdQGCHOPCRAAiTgJAIQBjVWG6zPsECg4uSUFIPVMhsJkAAJkICjCaSkmAzPHtA2wwKBzPBrJScna+4mY/4tlEEjARIgARIoXAIYkzE2G4096K2x+2muiI6naDMJX19f8fPzFR8f7aOXzm8SIAESIAGnEECUISMjXV2w2ysMeoPtFgi9IDSosBqll8lvEiABEiAB1xGwy8XkumazZhIgARIgAUcToEA4mjDLJwESIAEPJUCB8NATx2aTAAmQgKMJUCAcTZjlkwAJkICHEqBAeOiJY7NJgARIwNEEKBCOJszySYAESMBDCVAgPPTEsdkkQAIk4GgCFAhHE2b5JEACJOChBCgQHnri2GwSIAEScDQBCoSjCbN8EiABEvBQAhQIDz1xbDYJkAAJOJpAoT2LCQ/q8/X10z58VJ+jTxrLJwESIAFrBPDw1PT0tEJ7wrbdAoGnuAYE+KunuVprMPeRAAmQAAk4h4A2HGvmpx6cihcF2fsAVbtcTH5+fhIUFEhxcM65Zy0kQAIkYBMBXLhjbMYYbY8ZFgi4kgIDA+ypm3lJgARIgAQcSABjtD1uf8MC4e9vt3fKgVhYNAmQAAmQAAjYM1YbEggfHx+7py48dSRAAiRAAo4nADcTxmwjZkggsGKJRgIkQAIk4BkEjI7ZhkZ6o2rkGSjZShIgARIoWgSMjtmGBKJooWNvSIAESIAErBGgQFijwn0kQAIkQAJCgeA/AhIgARIgAasE3Gqt6pEbZ2RN7C7Ze+2onEm6JDfSkq022tadiNuH+YdKtdDy0ig8WjqWaSzlgyJszc50JEACJODVBNxCILZc3S+/nFooG+L22ncyMpA9Q6KLVZFymhD4a8+Gijddl01x+2TxhU3y8aHJ0rNCa3mw6h1Ss1gl++pibhIgARIo4gRcLhDjjkyVyacX24c5I0Malagld1XsIJ3KNpVQv+Ac5e2OPyrzz6+XmeeWy8LzG+Tp6CFyb5VuOdJxBwmQAAmQQCYBlwrEv/Z8JSsvbzd+LrQZQ6CPv7xY+17pU6lDnuXElIgUfIZUuU0gSp8dniIXbsbKc9H35JmPB0mABEjAWwm4LEj9xr7xdotDhaDS8m2zl/MVB8uTW6NYRfm40TMysFIXmXJ6iXx7bLblYW6TAAmQAAncIuCSGcSvp/6SRRc3GT8Jt2YO78U8JrXDqhkq58Xa98mN1CT54cSfUj+8hnQo3dhQOcxEAiRAAkWVgNNnEJdT4uWbY7Ps4pmhxRxeqHWvYXHQK/9XnQekQqA2CzlqX3v08vhNAiRAAkWJgNMFYvqZZWLKSDPOUJs9NNaWrPbNJ+ZgSwVBfoHyUPXecuj6GVl4cYMtWZiGBEiABLyGgNMF4q+LG+2Ci9lD/4od7SrDMnPfyh0kIiBMFmnLYPOyZ599Vj0REc80wadDhw4yefLkvLIU2rE6derIgQMHCq08FkQCJEACthBwqkAcvnFazmkrhwwb7nPQBKJzuaaGi7CWsX1EQ9kYt0e7gwIVWLeUlBR5/vnnJS4uTi5evCgPPvig3HvvvXL16lXrGQpxb2pqaiGWxqJIgARIwDYCThWII5orxz7LkFrFqkqof877HOwpt15YDTFpL/rGndx5WUhIiJQqVUrKli0rw4cPV0l37twpy5cvl5EjR8rdd98tY8aMkeTkZPnnP/8p5cuXl+bNm8uff/6p0kJM7r//fgkPD5c+ffrIkiVL1P7s+fV0VatWVUJ06dIlc7PGjx8vmFFERUXJ+++/r+llRo76zYm5QQIkQAJ2EHDqKiYEqO21skEl7S0iR3798RuxyfHqLuwcCW7t2Ldvn8yZM0cJAAb9sLAwadu2rSxYsEAmTJgg77zzjowYMUJmzJghGzdulJUrV8q6deuUGJw+fVqmTp0qV65ckW3btsmyZcvkvvvuE+y/du1alvzjxo0TiALKnTlzpjqOJpw4cUIJD/ZDhP7xj38ooQgKCsqSP7f2cz8JkAAJFISAUwUizZ7g9K1e+Yt9L+G2BsffRytTuxJPzUi3dti8b8+ePfLLL7+o382aNRMIRkBA5nu569evL6+++qo69vvvv0v16tXVlT12lCtXTtavXy/Tpk2TN998Uw3qmAH88MMP5lmEZf7Zs2fL2LFjpUGDBlKzZk0ZPXq0KnfWrFlSq1Yt2bVrl/qNMiBC3bt3F8v86iD/kAAJkICdBJwqEHhwnr2WoD1bqbAtPiWzzDD/kDyLHjx4sJolWEtUuXJl8+5jx45Jy5YtJS0tc7XWG2+8oQb7Q4cOKReVnhBxDd0s82NWUbp0aXUoMDBQzVTw48yZM1KsWDFzuXfddZdyNyUmJoplfr1MfpMACZCAPQScGoOoElLOnraqvMcSz9ldRvYCjiL2oK1MKoz2oWwEr/Ee2EcffVQGDBggn376qRrU4VKaMmWK2oabadOmTdKpU6fszVGxDKRDcHrRokVmFxMEITY2Vh544AHlylqxYoVyO+UogDtIgARIoBAIOFUgGoZH2d3k+NQbsvPyIbvLsSxgU9x+idSe7hoRGG652+ZtLHv19f0bJVY4XbhwQV3VV6pUSYkE3EWPPfaY7NixQ7APLqoPPvhAQkND1bJZy/yjRo0SBKMxK3jqqaeUiwqNadOmjXTt2lWio6OlQoUKcvnyZRk6dGiO/DY3nAlJgARIIA8CPpGRURm7d+/OI0nOQwEB/uLvb8w79cqer2XF5W05C7Vlj7YKNSM9Xe4q01FebvSgLTnyTbM39qg8vO1deTiqjzxa86580xckAVxCCCCXKVMmS7ZTp05JiRIl1GqmLAcsfty8eVMFsBGDwGzE0hDoTkhIUHEOy/3cJgESIAFrBOCNMJkKtlw+JibG+W+U6689ktuw4Q1A2tX6zPMr5OjV04aLscz4/+2dB3wVxfr+31QSQklIKAGkhN5770pTmiBVxHbBrj9QryIqKNerqH/xKs2OekEuqAgWUDrSi/TeW+i9BUhI/vsM7uEkJCd7Nufs2cN55vNJzpaZ2Xe+szvPtJ2dsHemBAUHSaciObDLOUKnbbQAMooDTmP6Kqa6unIRERGqpZBRHBAGU20xCE5HAiRAAt4kcLNfxJtXcYq7YYGq0iKuptMR9zbVm8yhwfLRtpy/xTx953yZd3qt9CvZXuIj09fy3bOKvkmABEjg9iNguUAA4XNlekp0WB5zNLVWBERixcVtMmLVV+bi0EIt3r9G3t79X6laIEGeTOhmOh4GJAESIIHblYBPBCI+IlbeqPQPCdYKelNOCxcUEizTziyV1xaPlisp7n27etqWOfLCxo+leL7CMqxyfyU4puxgIBIgARK4jQn4RCDAs35MZfmo+kDt29Em3oz+uxURFBYsc66skx5/vCw/bvgj22zadHiHvDTvA3ln/0SpWri8/KfmILkjd86n3mZ7YXogARIgAT8kYPkspoyMziZfkDF7pspvR5dmPJX9PmY1aW9AS6q2zN7VFMmblEsa5a8sVQqUlfi8cRIaEipnk87LrtMHZfXZrbItNVGCo8KkX6m75aky3dhyyJ4wfZAACdwGBMzOYvK5QOjst188oERi8an1cvTKaf2wsV9NJKATSiiwnZKq/tRB7f2EYG1QOyFfMbUKbCdtFhUGpDGOQUcCJEACgUDA7wXCOZOOakuCH9b+kq5fcT5sbButCsey3UGC5TPwhnRsrvzGwtMXCZAACdxmBMwKhLm33bwMr4g2iI0/OhIgARIgAd8R8Nkgte+SzCuTAAmQAAkYIUCBMEKJfkiABEggAAlQIAIw05lkEiABEjBCgAJhhBL9kAAJkEAAEqBABGCmM8kkQAIkYIQABcIIJfohARIggQAkQIEIwExnkkmABEjACAEKhBFK9EMCJEACAUiAAhGAmc4kkwAJkIARAhQII5TohwRIgAQCkAAFIgAznUkmARIgASMEKBBGKNEPCZAACQQgAQpEAGY6k0wCJEACRghQIIxQoh8SIAESCEACFIgAzHQmmQRIgASMEKBAGKFEPyRAAiQQgAQoEAGY6UwyCZAACRghQIEwQol+SIAESCAACVAgAjDTmWQSIAESMEKAAmGEEv2QAAmQQAASCLUyzSlJV+XKmYvqkuH5ckt4nki1nXz5ilw9e0lt54rOI2G5c1lpFq9FAiRAAiSQCQFLWxC7Zq6U8Y2fVn9L353kMGf16GmO4zt+XuI4zg0SIAESIAHfEbBUIJyTmbh8i2M3ceVWxzY3SIAESIAE7EHA0i4mPcnhUZFyeuchuXL2ooRGhMuR1dslMja/JJ06p3uRM7sSZfHbE+Twim0SU7aoVOvXVip1byGnth+UhcPGS/GGleXs/mOSuHyzlGhWQ+o9103yFS8om76bI9umLpKGz/eU4o2ryJG/dsiSdyZK+c6NpfqD7Rzxc4MESIAESMA1AZ+0IEq0rKGsOrZul5zcul9tF2tYyWHptYtJ8mOv4bJv3lopUrusJhaHZc6L42TXb8sF4xVofaz4zw9y4M8Ncv3addkyZb5s+OYPFf7CoZNKcK6cuaD2r567pPbPHzzhiJ8bJEACJEAC2RPwiUAUrFxKWXZ07U45uman2i5ULcFh7b75a1VrolzHRnLXu09IqxED1LmNE2c7/MRVLCEPLfpI+swYoY7t/mOl4xw3SIAESIAEck7AJ11MwaEhWrdQNUlcsVUi8kdJ0foVVVeTnpwLh27U9nf+ukzwp7uze4/om1K4VjlttlOEhOQKU8eSL111nOMGCZAACZBAzgn4RCBgdnydCqqbCNt1n74XPw6H8Qi48p0aS8MXekpqaqqaHovxiuvXktW54ODMGz/wA5esTamFu5DIriUFgv9IgARIwE0CPhMItAB0F1+7vJw7eFzflfi65dX2jl+WSny9CnJk1XbBdq3+HaRsh4YOf5ltRCfEq8PLP5gsx9buEuduqcz88xgJkAAJkEDmBDKvhmfu13NHg4LEecyhUI0yEqQd011MQlFpN+o5wWynhUPHK3Eo2bKm1H2mq+5F5Kb3m8e0LfiLr1tBLh45rcQhoU1ddT4oOIsA6UJzhwRIgARIQCcQlJBQJm3Tpk36vqHfsLBQCQ31fuMD3UmYfRQRHaWmwRoy7m9PSacvqHENvpXtDjX6JQESuB0JpKSkSHJyiltJq1q1qni/lHfLpPSeQ8LDJKZM0fQHDe5FFshr0Ce9kQAJkAAJZEbAN11MmVnCYyRAAiRAArYiQIGwVXbQGBIgARKwDwEKhH3ygpaQAAmQgK0IUCBslR00hgRIgATsQ4ACYZ+8oCUkQAIkYCsCFAhbZQeNIQESIAH7EKBA2CcvaAkJkAAJ2IoABcJW2UFjSIAESMA+BCgQ9skLWkICJEACtiJAgbBVdtAYEiABErAPAQqEffKClpAACZCArQhQIGyVHTSGBEiABOxDgAJhn7ygJSRAAiRgKwIUCFtlB40hARIgAfsQoEDYJy9oCQmQAAnYigAFwlbZQWNIgARIwD4EKBD2yQtaQgIkQAK2IkCBsFV20BgSIAESsA8BCoR98oKWkAAJkICtCFAgbJUdNIYESIAE7EOAAmGfvKAlJEACJGArAhQIW2UHjSEBEiAB+xCgQNgnL2gJCZAACdiKAAXCVtlBY0iABEjAPgQoEPbJC1pCAiRAArYiQIGwVXbQGBIgARKwDwEKhH3ygpaQAAmQgK0IUCBslR00hgRIgATsQ4ACYZ+8oCUkQAIkYCsCFAhbZQeNIQESIAH7EKBA2CcvaAkJkAAJ2IoABcJW2UFjSIAESMA+BHwiEKdOnZLjx4/fQiEtLU0dP3PmzC3nsjqwdetWSUlJUacR7uDBg3L58mU5e/ZsVkF4nARIgARIwAABnwhE5cqVpXDhwrJly5Z0Jq5cuVIdb926dbrjme1cvHhRKlSoIIjrwoUL8umnn0qBAgXk888/lw8//FDuv//+zILxGAmQAAmQgEECoQb9ecXbjz/+qAp4PfKpU6fqm9n+ouWwY8cOOXHihMTExMgvv/wigwYNkuHDh8vevXvlnnvuyTYOeiABEiABEsiagM8EomHDhjJhwgR5/fXXlXWpqany9ddfC45fu3ZNHfvhhx9k//798sILL6j9pUuXyvTp0+XFF1+UN998Ux0bPHiw1K1bV1atWqW6lyZPnixRUVGya9cuqVWrlkybNk0OHTokV65ckZkzZ0rRokWViJQuXVqF5z8SIAESIIHMCfikiwmmdO/eXbUANmzYoCxbvny5Gn/o1KmTw9JNmzbJwoULHfsQCxT4uXPnlgYNGqjj7dq1k2rVqklcXJxUrVpVypcvL+vXr5dZs2ap85s3b5Znn31W0H3Vt29fWbBggdp3RMoNEiABEiCBTAn4TCAKFSokHTp0EHQzweG3X79+qvafqaVOB9FCaNOmjTrSo0cPadKkiZQsWVJq166tWg1OXtVmQkKCTJo0SR599FF57733VGsjox/ukwAJkAAJpCfgsy4mmNG7d28ZNmyY6mZCd9NXX32luobSm3hzT5+tdPOIsS0MZoeEhCjPGK9ISkoyFpC+SIAESMCDBDCZZvfu3YZjREVYrwwbDuRBjz4ViI4dO6pWw0cffaQK7bvuuusWgcDYhO4w+GzGhYb6NJlmTGYYEiCB24zA7NmzlTi4U+AjDHpAypQp4xMaPi05o6OjpWvXrmrQGd0/ERER6SCUKFFCxo0bJxs3bpR8+fKpKawYf6AjARIgAX8jsGfPHmWyUYFwp6XhLRY+G4PQE9SrVy+1iUFruODgmyZhqipEpHr16lK/fn2pU6eO8oN/QUFBjm19Qz+m/+r+nOPU/fKXBEiABEjANYGghIQyaZgt5I4LCwsVq7pt8HZ1YmKixMfHO8YR3LGVfkmABEjADgT08QdMlDHi0IJAmMcffzzHXUwYv01OvrHihJFrww9mhfq0i8mIoWgNFC9e3IhX+iEBEiABEvAggZv9OR6MlFGRAAmQAAn4PwEKhP/nIVNAAiRAAl4hQIHwClZGSgIkQAL+T8BnAjFx4kQZNWqUOL/ngO2dO3eq1Vmd0eI4BmzMvijnHBe3SYAESIAEjBGwfJAahX3Lli3V4nnnzp2T0aNHq/ccLl26JFjmGwvrhYeHq3WTRowYoWYw6Qv44Q3oJUuWqLWXjCWPvkiABEiABMwSsFwgsCgf3MiRIwUf+MFievjbtm2bFCtWTBYvXqxWc8X7D08//bS88cYb0qdPH4FY4A/hxo8fbza9DEcCJEACJGCQgOUCgXWR1q1bpxbPa9asmWC5brjr16+rJbwjIyPl/Pnz6hjerIagjBkzRr1Ah6U5sDgfHQmQAAn4KwEsn2HE6W9eG/HrLT+WC0RsbKwAEL7nMHbsWPVNCHwoCN90gJs/f770799ffbOhYMGC6qtzpUqVUufwLQd8JAgvzzm/La1O8h8JkAAJ2JgAutAxlmpUIJAUrMHkq3WYcH3LBQLfjMZS30OGDFEL9WGtJXzkB99qePXVV2XGjBnyzTffSNOmTWGf+oAQvmENkUDLAstuUBwUGv4jARLwIwIo6I2+RW2XZFk+iwlffsOnQTEjCd91qFGjhkAAvvvuO1m0aJH6VoMuDoDUqFEjmTt3ruI1ZcoUqVevnl3Y0Q4SIAESuK0JWL4WE1oB+AocBqYx3lCkSBE1M2ngwIHy5ZdfpoONr8Dh+w2tWrVSM5vwKdJly5Zx6Y10lLhDAiRAAq4JmF2LyXKB0JOBb0sfO3ZMBgwYkG2XEQaw0TWF5b+5MqtOkL8kQAIkYIyAWYGwfAxCT07btm3VzCUj4wn4Gpw+UK2H5y8JkAAJkIB3CfhMINC9REcCJEACJGBfApYPUtsXBS0jARIgARJwJkCBcKbBbRIgARIgAQcBCoQDBTdIgARIgAScCVAgnGlwmwRIgARIwEGAAuFAwQ0SIAESIAFnAhQIZxrcJgESIAEScBCgQDhQcIMESIAESMCZAAXCmQa3SYAESIAEHAQoEA4U3CABEiABEnAmQIFwpsFtEiABEiABBwEKhAMFN0iABEiABJwJUCCcaXCbBEiABEjAQYAC4UDBDRIgARIgAWcCFAhnGtwmARIgARJwEKBAOFBwgwRIgARIwJmAqe9B4AtvRj7043whbpMACZAACfiGAMpsM86UQJw4cUKOHz9u5noMQwIkQAIkYDGBQoUKSWxsnNtXNSUQaD3Ex8e7fTEGIAESIAESsJ5AamqqqYuaEojChQtLaKipoKaMZCASIAESIAHzBFJSUiQ5OcXtCDhI7TYyBiABEiCBwCBAgQiMfGYqSYAESMBtAhQIt5ExAAmQAAkEBgEKRGDkM1NJAiRAAm4ToEC4jYwBSIAESCAwCFAgAiOfmUoSIAEScJsABcJtZAxAAiRAAoFBgAIRGPnMVJIACZCA2wQoEG4jYwASIAESCAwCFIjAyGemkgRIgATcJkCBcBsZA5AACZBAYBCgQARGPjOVJEACJOA2AQqE28gYgARIgAQCgwAFIjDymakkARIgAbcJ+FQgzp49K0uWLJGFCxfKsWPH3DbeUwGuXr0qiYmJmUaXnJws+EASHQmQAAkEGgGfCAQ+f/fWW29JTEyMNG3aVFq2bClFihRRx3yRAStXrpTixYtneunly5cLvsZERwIkQAKBRsAnAvHxxx/L66+/Lt9//71ALC5cuCDjxo1Tx6ZOnWqrPKhatarMmzfPVjbRGBIgARKwgoDlAoEum2HDhslrr70m3bt3l+DgYMmTJ4888cQTMmjQINm/f79KN7p9Ro4cKe3bt5eePXvKZ5995uCB8JMnT5Ynn3xSmjdvLiNGjBB8MQlu+PDhMnPmTIffL7/8Ur7++mu1j2v/+9//lkaNGknfvn3lt99+c/jDxv/+9z/p2LGjdO7cWebPn6/O4dvbOA63bds2efbZZ+Xnn39WfuBvzpw56hz+bdy4UXr16iV16tSRRx55RPbs2eM4xw0SIAES8DcClgsEBAAthg4dOtzCCoIAkYB77733ZMyYMXL//ffLPffcI48//rgaq8A5FNi9e/eWcuXKyUMPPSRvv/22fPvttzgls2bNku3bt6tt/EP30Zo1a9T+yy+/LGi9PPPMM1KmTBklBidPnnT4feedd6RTp05KbO688071C4HQxQljEaNHj1YtHYgW0tGmTRvlD2MY1atXlzNnzsirr74qly9fVkJ0/vx5R/zcIAESIAF/ImD5h6X1AhnjD65crVq1pF27dlK/fn1BmMqVK8uiRYukRYsWKhhq8s8//7zaTkpKEnRNPfroo1lGCT8ffvihTJo0SYkLPKJ7C7V+/fvaiAPCgeuWLl1a9u3bl2l806ZNU+fReilZsqTyh3gxjgGBgkNLJFeuXKo1g1YFHQmQAAn4GwHLBaJUqVKKEWr2FSpUSMcLM5pQA0fhWrRoURkyZIgsXbpU1dTTedR2ICC6q1ixour6QYGf0aHrCQX1gQMH1CnU8nWH7iY4CA9cQkKC+o2Ojla/EJXMHMQDThc5+NuxY4fcddddDu/h4eFK1A4fPuw4xg0SIIHAJjB79my3up5RJqGXwlfOcoHAbKW8efPKjBkzpF+/fo50p6WlyYMPPqi6mFJTU6VPnz5Ss2ZN2bBhg5QoUeIWSBcvXnSERSsAM41CQkLUMWeh2Llzp4pHn6WE6bRojcBhkLx8+fJqG/+CgoIc2+5uVKpUSebOnesIdu3aNdmyZYs0aNDAcYwbJEACgUsA4oA/d9zu3btVxRU9G75wlgsEEjl27FglDs2aNVPdPVeuXFFTXDGoC9FAAX/kyBEZOHCgoMWBAWPMJNK7lxDHF198IQ888ICcPn1aJkyYoMYpcByKC/HBuU2bNqnWAYQmKipKevToocY1qlSpIhAOjCPs3btXPDFO0KVLFzX2gAFyDKxDfCCE6CKjIwESIAF90grGV404iMOnn35qxKvX/PhEIFB4Hzp0SJ5++mn1h9ShYEdXT/78+VVi//Wvf8lTTz0lGFhGlw5mOWH2kvPgdoECBZTfJk2aqEFt7Dz22GMC4UFLBS0FnNNbBpg5heZa4cKFVeGN2U8QINiSldPD4rzzdkb/EB3YiAF13WFcQh/f0I/xlwRIgAT8hUBQQkKZNNS03XFhYaEeKfjQckANPl++fFKsWLFbTDh37pyq3d9xxx3qHLqH4uLiVME/dOhQNeMItX+9+0iPANNZMfsoszjROjl48KAK443CGzbi2mXLlpXIyEjdJP6SAAkEOAG0BtAqcLcFgRmcOe1iwlhscvKNVwGMZgPeAfNJC0I3MCIiQtB3n5VDa0JvUcAPav7ODsKCv4wuLCwsU3GAP4xToNXgLQcbM9rprWsxXhIgARLwJoFgb0burbgffvjhdIPL3roO4yUBEiCBQCbg0xaEWfCvvPKK2aAMRwIkQAIkYJCAX7YgDKaN3kiABEiABHJAgAKRA3gMSgIkQAK3MwGfCcTEiRNl1KhRgpfidIeRdqyjhNlNzg5+MPqvL8jnfI7bJEACJEAC3iFg+RgECnt8/wEigGmsWPwOb0Jjemjjxo0FS1TgLWksg9G/f3/1IZ+GDRsK3kzGkhZYjqNatWreocFYSYAESIAEHAQsFwh8gAcOK7di3aXNmzerPyyb3a1bN7Wg3urVq+W+++5TAoH3HbDsBl5qwx/CjR8/3pEAbpAACZCAPxFAb4gRp795bcSvt/xYLhBYoG/dunVqVVW88Tx48GCVNiyQh6UpAAXLedeoUUMdh6Bg2W98NwKL+GG5DDoSIAES8DcCrVu3Vl3l7i6fkdOX5HLCyXKBiI2NVQtWvfnmm2pNJqyjhGW29RVSX3zxRbWPVgMcFrzTX2zDCq9YNRUL+7la9iInQBiWBEiABLxBAAW9Oyuz6qtLe8MWo3FavtQGlrnAYDM+sINtfGp0wIABgiW7sTwFltDGAnwQEogBVnjFOAW+0obWRdeuXWX9+vVG00d/JEACJBDwBMwutWH5LKZVq1apJb1hMFZYRVfSqVOnVLcSupLQOsAANrqbsOAePg+qL6M9ZcoUqVevXsBnNgGQAAmQgBUELG9BYHE9fLENg9NYzA4igJlJaE2gJYFlvuHQ1YRvTu/atUtatWqlZjdhJtOyZctuWZzPClC8BgmQAAn4KwGzLQjLBUIHPH36dDW1FaLgPJ4AgXD++A/86yuw4sNBGKymIwESIAESME7ArEBYPkitJ6lt27aq4HcWB5yLj4/XvTh+vb0Cq+NC3CABEiABEnAQ8JlA8FsJjjzgBgmQAAnYkgD7a2yZLTSKBEiABHxPgALh+zygBSRAAiRgSwIUCFtmC40iARIgAd8ToED4Pg9oAQmQAAnYkgAFwpbZQqNIgARIwPcEKBC+zwNaQAIkQAK2JECBsGW20CgSIAES8D0BCoTv84AWkAAJkIAtCVAgbJktNIoESIAEfE+AAuH7PKAFJEACJGBLAhQIW2YLjSIBEiAB3xOgQPg+D2gBCZAACdiSAAXCltlCo0iABEjA9wQoEL7PA1pAAiRAArYkQIGwZbbQKBIgARLwPQFT34M4evSoXLp0yffW0wISIAESIIFsCURFRUlsbFy2/jJ6YAsiIxHukwAJkAAJKAKmWhBFihSR0FBTQYmdBEiABEjAYgJmvkkNE9mCsDijeDkSIAES8BcCFAh/ySnaSQIkQAIWE6BAWAyclyMBEiABfyFAgfCXnKKdJEACJGAxAQqExcB5ORIgARLwFwIUCH/JKdpJAiRAAhYToEBYDJyXIwESIAF/IUCB8Jecop0kQAIkYDEBCoTFwHk5EiABEvAXAhQIf8kp2kkCJEACFhOgQFgMnJcjARIgAX8hQIHwl5yinSRAAiRgMQEKhMXAeTkSIAES8BcCFAh/ySnaSQIkQAIWE6BAWAyclyMBEiABfyHgE4E4ffq0XL582V8Y0U4SIAESCEgCPhGIevXqybhx49wG/ueff8pPP/2kwuEDGO+//74cP37c7XgYgARIgARIIHsCPhGI7M3K3MecOXNk4sSJ6uS1a9fkpZdeEnwfm44ESIAESMDzBGwnEIcOHZKhQ4dK8+bNpX///gJRgJs3b55MnjxZFi1aJO+++64899xz6vjgwYNl586danvChAnSuXNnuffee2XSpEnqGP+RAAmQAAmYI2A7gejXr58sX75cBg0aJPHx8dKtWzc5c+aMlChRQipVqiTFixeXRo0aSZs2bVSKW7RoIQUKFJDRo0fLU089JQ0bNlR+77//fvnkk0/MUWEoEiABEiABCbUbg549e6pWQNGiRZUgvPXWW7Jx40bVoqhevbqEhoaqbX2Q++6775bY2FgZMmSIvPbaa6rbCWmCkGCc44knnrBbEmkPCZBAgBLYvXu37Nmzx3Dq9Yqw4QAe9mg7gYiLi1MCsWbNGilUqJCh5J44cUIuXLggL7/8skBQ4LCfN29eQ+HpiQRIgAS8TWD27NmCP3cc/D/++ONSpkwZd4J5zK+tBOLUqVOCFsSIESPkjz/+kHz58kmuXLmyTWyePHmUn88//1y6du2qttEtdfLkyWzD0gMJkAAJWEFAbzmgwDfi4N9dQTESrzt+fCYQGIxeu3atw9bg4GBJTU1V+506dZLo6Gj5z3/+o/avX7+ufkNCQgQiAn/wD4d9dD21bNlSfvjhB+nQoYNgCizGIwoWLKjGJJRH/iMBEiABGxDwVWvATNJ9NkiNwr927dqOv5o1a0q1atVUC6JKlSoSFhYmq1atUgV/ly5dVNows2nBggXSsWNHiYiIUGJw5513qkFttB727t0rGLvAgDaEA+9J0JEACZAACZgj4JMWBAZqsnKYyvrhhx9KZGSkxMTEqNaC/jJcq1at5Pz584KWBNyvv/6qZjihtREUFCSbN29WIoHtsmXLZnUJHicBEiABEjBAwCcCkZ1daAXoDl1JRYoU0XdvGXiGiOgOM5zKlSun7/KXBEiABEggBwR81sWUA5sZlARIgARIwAICFAgLIPMSJEACJOCPBCgQ/phrtJkESIAELCDgM4HAonujRo1yTG1FWjHzCO8u4A/vMegO01oxsI3pq3QkQAIkQALWELB8kBqFPd5ZuHLlipw7d06toYSlNODwFjWWyIDDLKT58+dLYmKiepcBq7cmJSXJkiVL1HRY5Yn/SIAESIAEvEbAcoHAQnxwI0eOVK0ETE3FH5bFwLojs2bNSpdYrOzap08f9XY13rBGuPHjx6fzwx0SIAESIAHPE7BcICpUqCDr1q1Ty3E3a9ZMsFw3HIQBXUxY4rtixYrSt29ftZorBGXMmDHqzWm8INejRw/PU2CMJEACJOBlAgkJCaqrHN+x8RdnuUBg5VWsL/Lmm2/K2LFjBd9wmDp1qupuwvLeWIvp999/l/bt28v69etly5YtUqpUKcUT70fs2LFD0tLS1Itx/gKZdpIACZCAvjKrviaTESKtW7f22UJ9sM9ygTh48KBapRXLc+PbD1iSG29PY1tvHWD5DHzjAV1P+L4DWhYQCbxFjXWX8KY0HQmQAAn4GwFdJPzFbstnMWF9JXwMCDOSoqKipEaNGkoA3n77bbVcN8Dt27dP8cNb0fg40Ny5c9X+lClTBN+zpiMBEiABEvA+gaCEhDJpmzZtcutKYWGh6sM9bgX62zNaAe3atVOtA6y3hGU0MDMJ329AcwqicfXqVXnllVekd+/esmvXLsEaTOHh4YKZTMuWLXPMdDJzfYYhARIggUAjgAp5crIF5ZA5AAAjI0lEQVR7rwlUrVpVLBcIPWOmT58ux44dkwEDBqTrMjp69Gi6tZfgH8t9o2sKq7Tqy3zr8fCXBEiABEjANQGzAmH5GISejLZt26qCP+N4gvPCfLpfrN6KMQg6EiABEiAB6wj4TCDQvURHAiRAAiRgXwKWD1LbFwUtIwESIAEScCZAgXCmwW0SIAESIAEHAQqEAwU3SIAESIAEnAlQIJxpcJsESIAESMBBgALhQMENEiABEiABZwIUCGca3CYBEiABEnAQoEA4UHCDBEiABEjAmQAFwpkGt0mABEiABBwEKBAOFNwgARIgARJwJkCBcKbBbRIgARIgAQcBCoQDBTdIgARIgAScCZgTiDTnKLhNAiRAAiRgawImy2xTApGqffKTjgRIgARIwD8ImC2zzQlEaqp/UKGVJEACJEACkmqyzDYlEGlaCyIl5TqxkwAJkAAJ2JwAymqU2Wacqe9BnDhxQvsKnAg+5JPxgz9mjGAYEiABEiABzxOAMOCLnNCHggULun0BUwIhkiYnTpx0+2IMQAIkQAIkYD2BuLg4Uxc1JRCxsXGCPzi0IEJDQ1RrwpQFDEQCJEACJOBRAmg15KRrSTfGlEAEB6cfurh+PVUbBEnTRCJYEwz86dHzlwRIgARIwAoC6EZKS0vVupRS1ZgDKu85HQIwJRCZJfbmwDUHrzPjw2MkQAIk4G8E0jcF/M162ksCJEACJOA1AhQIr6FlxCRAAiTg3wQoEP6df7SeBEiABLxGgALhNbSMmARIgAT8mwAFwr/zj9aTAAmQgNcIUCC8hpYRkwAJkIB/E6BA+Hf+0XoSIAES8BoBCoTX0DJiEiABEvBvAhQI/84/Wk8CJEACXiNAgfAaWkZMAiRAAv5NgALh3/lH60mABEjAawQ8thYTVnQNDsYfV+rzWm4xYhIgARJwQQCLpqam3ljJ1YU3w6dyLBD4aFBYWGiOVw00bDE9kgAJkAAJZEogJCRIraodGhoqyckp6mNBmXo0eDBHXUxoNYSHh1EcDMKmNxIgARKwggCW+UbZjDI6J860QOCbEGFhYTm5NsOSAAmQAAl4kQDK6Izf73HncqYFAk0YOhIgARIgAXsTyElZbUog0HzB1+PoSIAESIAE7E3gxpc+zU0eMlXKUxzsfUPQOhIgARJwJmC2zDYlEDn9zqmz4dwmARIgARLwLgGzZbYpgfBuUhg7CZAACZCAHQhQIOyQC7SBBEiABGxIgAJhw0yhSSRAAiRgBwIUCDvkAm0gARIgARsSoEDYMFNoEgmQAAnYgQAFwg65QBtIgARIwIYEKBA2zBSaRAIkQAJ2IECBsEMu0AYSIAESsCEBCoQNM4UmkQAJkIAdCFAg7JALtIEESIAEbEiAAmHDTKFJJEACJGAHApat2Z2mfQrv0tHT6dKcu1C0BOfwgxbpIuQOCZAACZCAxwhYJhDXLlyW8Y2fTmd4eFSklO3YUBoM7CF54gukO2e3nXP7j8mm7+ZIfJ3yktC2nt3Moz0kQAIk4HECPuliqv1EZ6n+cHuJiM0rWybPl0VvfevxhHk6wkvHzsiaT3+RxBVbPR014yMBEiABWxKwrAWhpx6thiaD71e7lXu0lP91GCyJy28UukdWb5dl/2+ynN6ZKDFl4qVEs+pS56kusuGbWbJrxnKp1re1VOjaTFKSrsr0h96RsNwR0vGzF2Tag+9ITEK82t89a5XEVSghDV/sJStGTpFjG3bLHU2qSYvhj2rnc8mZXYmy+O0JcnjFNokpW1Sq9Wsrlbq3UPZM7T1c8pcoLLnj8suOX5dKbPk7pNaAjpKveEFZ8s5E5Qd2RBUuILUf66gnib8kQAIkcFsSsFwgdIoYkzi5ZZ/ajSyQV1JTrsvPD42Qa5eSpGyHhnJ84x5Z/sEUyVusoMRWuEMWDf9GQsJDlUAcXrVdDq/cpgr2VC2exOVb1F9kbH5JOnVOzh84Lntmr1bdVhePnJatPyyUuMolpXLPVvJjr+HKT4lm1eToml0y58VxEhaZS11TjwdGRZeOl71z/pILh05Ip68HS3je3MrW0IhcEp4nQm3zHwmQAAnczgQs72KCAHxa5RH5rNqjMuefnyi2qI1fPXdR6j5zr7Qb9Zw0HNRD6+uvoM6dP3hcijWsJCj8Dy3dLFfPX5aDSzaqc+U7N3HkDVomjywdLfd9/4Y6hgL+wQUfqfhw4OyeI7Jv/lolDuU6NpK73n1CWo0YoPxunDhb/er/HvzzY3lg7kglEie3HRDRRKjeM13V6VJ31pKq97fWvfKXBEiABG5bAj5pQRSqkaCAFqqWoLqRijWqLEFBwXLp+BlZ+u6kW2AHh4RIxa5NZe0Xv8khTRz2zFotEITijauolgcCYEZUSK4wiSoYrcJHly6i9iNj8qr9tNRU1RrAzs5fl6k/dUL7d3bvEX1TtTrylyik9jFwjnPXk1Mc57lBAiRAAoFCwHKBQMHe9bvXb+G7Rxs7WD/+dylav6LcOeIxObhooywcNt7hr1ynRkog1n45QxXaGOTGFFl0TRlxECC0QuDKd2osDV/oKamaaFw5c1FCI8IdUQSHWY7EcW1ukAAJkICdCNinNAwKUlwi8udR3UFrv/xN7aelpanfwtXLSD6tZo+BbLjyWjeRuy6+bnkVZMcvSyW+XgU5oo1lYLtW/w5SsEopl9EFBd+wD9c/8tcONd3VZQCeJAESIAE/J2D5GERWvEq1rCmFa5RRg8u/9n9fIAhwR/+6IQhaH5RU6tZcHUNLoEjtG4W9OmDwX0xCUTUmgVbMwqHjlTiU1K5b9+/xBVfRYJAbAnVs/W7ZOCH9mIWrcDxHAiRAAv5KICghoUzapk2b3LI/TOuGCQ31TuPjwuGTElkgX7puH904zEbCrKMGA7tLfe3PrLt+LVnOHzwhEdFRjm4nI3Fh5tXV85ckVBvrCNVmPtGRAAmQgD8QSElJkWQ3x1KrVq0q3inlc0Asb9G4TEPPfflT9VIdTlb8+72FTD0aOBgSHqa9Z1HUgM/0XtDNFBGdJ/1B7pEACZDAbUrAdgKRFefoUkWk5j/ukTLt66sX17Lyx+MkQAIkQAKeIeA3AlHnyS6eSTFjIQESIAESMETANoPUhqylJxIgARIgAcsIUCAsQ80LkQAJkIB/EaBA+Fd+0VoSIAESsIwABcIy1LwQCZAACfgXAQqEf+UXrSUBEiABywhQICxDzQuRAAmQgH8RoED4V37RWhIgARKwjAAFwjLUvBAJkAAJ+BcBCoR/5RetJQESIAHLCFAgLEPNC5EACZCAfxGgQPhXftFaEiABErCMAAXCMtS8EAmQAAn4FwEKhH/lF60lARIgAcsIUCAsQ80LkQAJkIB/EaBA+Fd+0VoSIAESsIwABcIy1LwQCZAACfgXAQqEf+UXrSUBEiABywhQICxDzQuRAAmQgH8RoED4V37RWhIgARKwjAAFwjLUvBAJkAAJ+BeBUDuae/nEOdk79y85snKbnNlzWFKvp4qk2dFS8zYFBQdJ7oLRUqhGgpRsXkMK1yxrPrJsQl6/fl2Sk5MlNTVV0tJ8CzI4OFhCQkIkNDRUsO0tl5KSIvizQ5q9lUbneIMkSIJDghVXsPWWA0/cTzpbb13ndo43KEjLK+3eRz55M688wdB7d5IJ605tPyB/jftZLhw6ISVb1JQK3ZpLTEK8BHmxIDFhpseCXD5xVo5v2ivrv5opZ/cdlRqP3i0V7m3qsfghCteuXVOi4Gth0BOFAgaFC+zCQ5IrVy4lGPr5nP5evXpViSHisUuac5omo+Gvp94ouFEAQYTBFtuecBAFsA0UwfUEM1dx6CKL/IFIIK/s6IISEsqkbdq0yS3bwsI8r3wrP/5RDi3eJDUebi9Fapd3y57bwfOVsxdl44RZmjielJb//ofkLRZnOlm4+a5cuWIrYcgqMXphFhkZmZUXQ8chOnoBZihAAHgCWxQ8YWFhOUot7iXwDTTBzRE0NwIjn/S88laLAvmXnJzihlUiVatWFe+18d0w5fdnP5aUS1ek3cfPBaQ4AFVEdB6p90w3qdS9hcx4/AM58tcONwje9IobISkpyW9qeih0YPOlS5dMF0BojVAcbt4D+hbYggv+zDiEv3z5MsXBDDw3woAzWmYQYrT67eR8LhC/P/ORFKpcSmo8co+duPjMlvi6FaT5G4/In8PGy8kt+92yAwUtCgPccP7m8ICgMHLXdr0bDeHpbiUAnmBkRiRQ0UBr1N08udUKHjFCAJyRT3YSCZ8KxIqR30u+OwpJha7NjPALGD/5iheUxi/fL/MGf2Y4zXoNxJ8LStiOQsmo0/vFWYC5JqaLBCoQRp0uDkb9059nCOgigXvbDs5nAnF84145snq71HiovR042M6GAuWKS9l7GsjSEd8Zsu3qFf9sOWRMHETCaA1KH2fJGAf3byWgFzy3nrn1CITELgXUrdbd/keQV7i37eB8JhB/jZ2mdSvdbQcGtrWhwr3N5NCyzXLp2BmXNuJhxgyW28Hh4cCYQnYOIgK/dMYJQHyNdDX5azelcRL294l7250Wn7dS5BOBOH/wuFw9f0kKVUvwVrpum3graiKxZfI8l+nRp7K69ORHJ408HLdbmq3KnuwKHVQ2KLxW5UbW10EeXL2afUUp6xg8c8YnArF39mop2bKWyxRs+X6BfNXwSTm9K9Hh79iG3TLtgbcc+9lt7J27RsWBePD3/X2vy7ovf5M0mwxontt/VA6v2uYyGaVb15G9c9a49GOkO6B79+7SvHlz9de+fXt55ZVX5NChQy7j9dTJsWPHyvfff6+imzVLm8p74YLLqPFwuOpmUuMs2TQePv74Y0d69XSDQVYONsEfrv3ZZ5/JlClTbvH64IMPpovztddek61bt97iz1cHjLJ1db8YaZktWLAgHYfevXvL119/rWbimE07uIPvoEGDDEWxZs0a2bdvn/KLcNu3bzcULqOnM2fOqLRkPG5kX+edkzhcXSctzfcvtvrkRbnEFduk9uOdXLGR1L8H1JaOmCgdPntRvSyXpr1Rff2a8WlgEILYCiXk7tH/p651bv8x+aX/e1KoehkpWq+iy+tbcRLjMIdXbXVpSzDeOYkI11pclyVXvty3mOXqYXf2fPHiRXn//felcuXKcu7cOZk+fbr0799ffvvtN4++qOZ8TX373nvvlfDwcLU7ZswYqVChguTNm1c/nemvEoFMz8iNmTXZvFqPgq5bt27ywAMPZBFL+sMooHSHWnZmAoVWy/Dhw6VOnTqqq+arr76S0aNHC9JkB2eELdKJewYv0mXmjNxP8FO+fHn58MMPVRQHDhyQJ598Us2br1u3bmbRZnts8+bNcvz4cVXoJyYmSrFixVyGmTlzplSvXl1KlSqVo/ES3Ifjxo1zea2sTuq8YavZOLKKWz8O1t56N0K/hqtfnwjEhcMnJW/R7F8EK9mypprquePnpbe8YYw3j5e8PUG1MBLa1JWq97eW/CUL35LWoJAgCc97o2AtWLW0FKtfSXt7eY8qlNd+8ZvsmrlcLVFQpn0DqfnoPTLvlc+0weGGUqJZdbyKKzOf/o/UfaarrP/6d8lXrKDs/3Od5I7NL+W7NNFebJstydr7G/X/r7uUvqu2XD55Tpa+N0kNvheqniCNXuilZmmt/+Z3uXbhshxZs0MuHjktlXu2lIQ29WTVmJ/k+tVkFU+1B9rcYrt+ILp0vJzVlhzJbDkOVwWpHl7/zZ07tyqY8VA88cQT8ssvvwgeTDxov/76q0yaNEk9bJ07d5Y+ffrI4sWLZenSperB3b9/v/Ts2VPuu+8+VbjgHApHzHaBAPTo0UPy5Mmj4oD4FCxYUPlv1qyZLFy4UAoUKCB79+4V1LZefvll+fzzz7MVCRRmeIEoo8ND41ygZzyv70dFRUlcXPr77PTp0/LSSy/JF198obyhoIFNHTt21IO5/EWc4Ie/u+++W55++mk1ZnLw4EH59NNPZcOGDYonjuNaEyZMkA8++EDFiZr3smXLpE2bNoo3BAf8u3btqvyiRlqjRg0ZNmyYIK/wAuuoUaPk6NGj0qRJE3nmmWeUcA0ePFj5g+1FihRR/n/++WfDbF2JgBGuSAwEBgzgqlSpIvXq1ZMtW7ao40gHpiyXKFFCtQrAZfbs2eqe+Mc//iGNGjVS4Zz//fHHH+oeQots3rx50q9fP3Ua9wru1dKlS8vu3btVS+Wuu+6SRYsWycqVKx1CMnXqVFm/fr0Kg1ZIgwYNBPfse++9p8IhTK9evZRNkydPlrNnzwpaITiGfdiIFjVau8gT5C3u6djYWEG+4dlAPkAAcf+MHz/ewRv5ixYr4kBFDMK5ZMkSlUd4ZlChwH2AVuq6detUPHiO0PJx5XQx96VA+KSLCQWvERceFSlNX31A8JY1Cl9nt3r0VClco6x0mzRUQiPDZfW4ac6nHdtXz12Sg4s3yIE/18u68TMkceVWKdG0uhzfuEeJQ/tR/yd3j31eFdLo8oktf4fsmrFchT+xdb+c3HZAHTu374ic2XtY2o58RsKiImT5B1Ok+bCH1Zvfa7/4VfnHb57CMXLvhFclpnRRmf3CjZplkmb7nlmrpfnrD0kzLT1rPv1FImPyKEEq1qCSVO7R0mFvZhsR0VGSdCbzbhncREYfaue48YDjoUaBdezYMVXYo9sJDyQKGxTqKDjRwnjkkUdUDQkFPwpA1K7feustGTBggCrAUJChANizZ4/yh8J/4MCB8tFHH6kHBvGjsHz44YdVwTd06FAlJs72ZLadVbqyOp4xDojbyJEjHX+wE62DHTtuvoSIggK2GXWIA/GiQENXFLql0DpCDbJmzZoybdo01Ur773//K5UqVZJVq1apAgrxo0CvWLGiYoJCEIXQkCFDBC0RFALopkEh9ddff6k8BWOILziido3rwX4UYBEREfLll1+qQhrxusPWKD9XTNAKBQdUFL799luVzsaNG6sKA+6ZsmXLSpcuXdR9hEIfQodCEffXyZMn00WNGTu4t1CIQzwRXrcRhTyEFA7+sA+xbNiwoWodQlDhwAcFNbpPYQ/cJ598osQa++AFfnCnTp2Sn376SQkAWrN6N+HEiRNV6/a7775T10cFCvc67le0kCASSPecOXPS8cbb6nocyAsIAfIGlSO0OJFnSPPcuXNV1y4YoIJiZKaSzkEZ7oN/vhEINxJarEFlbV2mGrJq1I+OUKi1H1i8UZsF1V6itAK5zhNdZP+CdaqW7vD098aVMxc1IVgpu/9YpZ1Pki7fDBFMIS1YpbTcNeJxOawtCLjpuzmSfPmKJJ2+IKW11si++WvV/v7566R858YSHHqjOV6+UxPVSimsdVHBpriKJSS+TgU5u/eIpGqvsUME8EZ04oqtyq5zB45L0qnzyhKssYSWwB2aOIXljtAE77yERWrrEIWHSkiusIxmZ9i/tRadwYOp3cKFC6v1kFAbK168uCrgURNGk1mvjeFBxCv3aBGgZYGaEc6hRocHGrXEvn37yu+//y6ILyYmRt59911VKEIo0KrQHR5SPEyohWfWMtD9eeoXtT8UVPpfvnz5chz16tWrBTVk1F7R6nj11VdVnCgIwA01WYjCiRMnVKEEEQBfFBoQYwgK3B133KEKEL1LBt1haA2gCxCFyc6dO+Xw4cOqgIIoI27EqzswR+sIhRBqtlazhbCCAwpL1JpRIIIzHLp90AKAfRBCpAs1ZxS2uD8gcM4OIoMWE7qW0LpBuvUC19mfvo2lQ/CHNOtdZZ06dVKMwAMiizfzca/CjkKFCqnKzJ9//ukY/0LetW7dWsWhxwu7kX8YL0M8Dz30kLrODz/8oCpRGJfap417QGCy4o3WBloNyC9cA88VBB8ONuIaEFKkF6Jmd+eTLiatdHCLS/3n7tMGmIdK7kIxKpxemw7NdaNfG2MTymUSbf5ShaXVv/vfcr2jWnfPnJc+kWp9W6uWyP6F65QfvKRWSOuKOrRsiyYqK+XOdwY4wuYtGntjW1uJFULg7K5pogWRCdYKfIx9BIeFSKN/9nYU/hADsw7rNEXE3GjOZ4xDX8fF3ZoG/KPAQvMdtWKshaR3V+HhQAGGB1bvRsB1UeNBwYDCLzo62mGK3mWBgh81IzzwKDhQe9cHpx2e3djISkSyOp4xatQOIWrOLuNDef78DQF39uNqGzV1tLwyutdff12JXsuWLVXtFkIChxoxuhzi4+PVcYgWHIQVTl/R1pkzjkMkUJjqeQJBhnjoTl9fCQWku3lvlJ9+rcx+S5YsKW+88UZmp1RlQj9x5MgR1ZLS04HWKNLi7FDrRl6hAIdDIYr7xzm9OO4qr1Agw4EnpuniPoVDhQROv0f1tINtRocupYSEBFmxYoUSfnT9QbjRFdS2bVupVq2aqixlDOe8D3Fyzku0HnRnZr0x3V49Dqt/fdKCyBsfq/XFnzKcVhSOKGw3/neWCoNCHLXxg0s2qnECFORYoiI8z62DuFldBF1NaAXU/EcHKVC2qFxIvNnsLduhkaz86AdVyBfUlgEx4iAYGN/IHRctle5roezD9NTshCFFG4PIzmG8JUZLb2ZOL2AyO5fxGGpw+MPDg24LPDS1atVStSU0nfEQoImO2h66heBQ0KGGiD5l1IRxHv27a9euVX7wMOJhbtq0qfKLcQkUymhFQERQE87oYIMRl9XDgUIxq3PZxQsRg8PAKmxHLTOnDuMwqN2jW61Dhw7paobgC35oTYGdUVe7dm1lH8QIXTXgj3zJzhlh6+qeMcs1K7tQS8f1UHtGxQMVBr2wRhjcZ2CHbhx0ceIPlZYZM2aoezV//vyOeyhjXjkXvhmvD8GA0KASBAFFFyjGApxbtBnD/POf/1QtA4z1PPvss8outGQgMs8//7yyHwLg7DLyRnrnz5+vhB33PsLr3WDO4YxsIy/0FpIR/97w4xOBKFq/YraL0WnrG6ZLb9n29ZUI6AexsN0qbRziu3te1n5/kpoPu/fSXZl29eXQ8i0ytc9wmTfkCyneqIq21Ph0FX2pVrXk0vEzgncQ0rV2tAzLzKHLCK5m/w6y+X/zZHLnITLzqQ9V11eQtka/cpmERVcXurgwNpKVw7cwUpKuSq78Nwq2jP5UYZmBVUY/+j4KMHQLYVoimskYwMMDg0FGFEgYmEafN8TizjvvVMFQU0V3ht4FgocMA86oVT322GOq8EILpF27dupBQA0dftE8R00R/fK40fWCBwUmHkB0ubhyrgqxnAoEbMXsJqRLr+3p9sEmZ3td2aifQ80QtU0MTIMhCiRMu0RNFLZCGCAS6FqAc76WHofzL86jCwOcnnrqKZUn6PpA3K7CGmGL8K4GPT1RIDnbCNYY48E9AUboYsN9oTtULtCNqbescBz3GAQRlRMIC+5TiCS60nSH2jxaZnpLTT+OX73VgHEDjA3hnsZ4hD7wDft0G/VfhMO1IBKY3YeWMO5xPBe433GvPKy1HsuVKyc//vijauHpvNGdpTvYuWvXLpVWDMjDBuSl8zV1v0Z+PZEfRq6TlR+fLPeN6aYLXvtSWr//ZFZ2GTuuPYjntZo/BoYxHdRdh64pDH5jHEN7quWqNtMoV74ouXYxSSa0fl76/PauRMa63299XvueRW4tXKiBbqXr11K0m0drGmdhP1pHV7QB6voDu2eZPNRgXdWmsgyY4QQKbTyYGEuAw2A1+otRe8JDgAfF2WHwEEKDPmbnBw21c7QeMuvzR+GJuFzV5BAXHipXBRni0LstnG0yug0RhA2efABREKJvGbYjT2A/BPZrbfAZAoEC312HfEWfPGrE2dlqhC2EV29FZWYLavewHXF50qHLDCzQInDXwR64jF00uAdwzFVlAukAP4xD6N1yrq6POGErugCd72m0dDCmgjzAc6Lfv1ndy6gogbMr1q7swLns8iq78M7ncR+ZWe7b/VLV+aomtzEdNSx3LjmxeZ82WFzKZCxaMK0gQXeTWYfavRIHRKDFBXFIXLFFe5luhppZZEYcEJU7NmGQ2pXbPm2xNstqoCsvahYNHuycPtSoTes1aucLokam18qcj2P2DvrWMzq9fz3jcezjodMfrszO635ciQP84No5WRLCTEGVlb36cWcB1QszvHuC2SuYFmnGgYMrns5xGmGbHVcUgIgnp/eSs13YzjjdOON5V/s6y4x+jBS+SIs+PpExfGb7WRXqeqUJYZyfkazuZQhSThzs1t8dykk8OQ3rky4mGF3nqXtlvYuulZwmzGz4/CWLSIOBPaThC73MRuGxcDt+XqK61fJoYzauHB5qV7UoV2FdnUOXCJrWVjqjDwZqg/Brd9eqVSvV756ZkFptO+6RzIQ+ox3w4w9sM9p9O+2Dv5EWj7fT7DOBKFyjjPY95rKOgWdvJ9Ro/HmKFJC4yiWNeveavzO7D8uOX5ZK0yHGCmh0awQHeTY7UeszWnv1FAgUYkYfDL1v11PX9kY8mMbqXOP0xjWMxIkCx4g4IC60MrLrzjJyTfoxRwDPAO5tOzjPlihupqjRP3vJ6d2Jgpoy3U0CmOG15J0J0uptbYqtwVqyqh1G5PK4SNy0yvtbSENW3QmZXR2FGJrhrO1mRufmMfBBoZ9d99LNEDf6+5EfdNYSQF7hnraLQPv8Drjnk+fl6NqdsuHbP6zNCZteDSwWvK69hTn0QW2125uzPYyYiwIglyYS/lhg6uLgru14mPDHwizzO0QXBzM1Ugy426Wgyjx1t9dR9ADgXjbagrYi9T4XCCTy7nGDtLeVg2XWoNGCFVsD0WHmFKbZbpo4W9prg9JFtXcqzDiIhD6zw93C1sz1chpGL8AwOGi2kMdDhe4Ts+Fzmga7hgdbcDEjDkgTwkMkUGCRrXdzGXxRucO9bCfnk2muWQHArCYUkph6WrJFTSlSq5xElyqSlXe/P47pq8c37ZVE7aNAWNa82oNtpVL3Fh5LF6ah4kUezEjx9KyUnBqJB0KbjS7h2tvw7nR9ZHddvO2tT/m1W5qzs90T5/VKgWpNenCwGbPk9FljOZle7Ik03i5x6HkFATY6PmQ27WanudpKIPTEow8e33LAS2TntLeI7fL9Bt0+j/xqtbPIAnnV0uN4oxtvgnvL4eGGUODB9nWhiYcChRf+vFkrxQOBP6Q9UBx4orBBt5Be+Hg67biHdK4UCvN0kUf6c2A+FuMhbyuBMJ5s+iQBEiABEsiOgFmBsMUYRHaJ43kSIAESIAHrCVAgrGfOK5IACZCAXxCgQPhFNtFIEiABErCeAAXCeua8IgmQAAn4BQEKhF9kE40kARIgAesJUCCsZ84rkgAJkIBfEKBA+EU20UgSIAESsJ6AKYHw8LdErE81r0gCJEACAUTAbJltUiA8+7WpAMonJpUESIAELCdgdgUFUwIRSMsXWJ6TvCAJkAAJeJiA2TLblEDAdry6TUcCJEACJGBvAjkpq00LBD6AzcW67H1j0DoSIIHAJoAyGmW1WWdaIHDBa9durBBq9uIMRwIkQAIk4B0CEAeU0TlxORIIDHxcvXpNdTeZHSXPifEMSwIkQAIkkJ4AymJ0K6FsNjs4rccYqm/k5BdNGPyFhGgfgdE+m0dHAiRAAiRgPYG0tFTtGyipHruwRwRCt+aGYZ4zTo+XvyRAAiRAAtYTYHXfeua8IgmQAAn4BQEKhF9kE40kARIgAesJUCCsZ84rkgAJkIBfEKBA+EU20UgSIAESsJ4ABcJ65rwiCZAACfgFAQqEX2QTjSQBEiAB6wlQIKxnziuSAAmQgF8QoED4RTbRSBIgARKwngAFwnrmvCIJkAAJ+AUBCoRfZBONJAESIAHrCVAgrGfOK5IACZCAXxCgQPhFNtFIEiABErCeAAXCeua8IgmQAAn4BQEKhF9kE40kARIgAesJBPNDP9ZD5xVJgARIwO4EoA1sQdg9l2gfCZAACfiIAAXCR+B5WRIgARKwOwEKhN1ziPaRAAmQgI8IUCB8BJ6XJQESIAG7E6BA2D2HaB8JkAAJ+IgABcJH4HlZEiABErA7AQqE3XOI9pEACZCAjwhQIHwEnpclARIgAbsT+P8G9mlZyPluBwAAAABJRU5ErkJggg==;" vertex="1" parent="1">
          <mxGeometry x="40" y="510" width="392" height="844" as="geometry" />
        </mxCell>
        <UserObject label="Venue&lt;br&gt;Merchant" name="Edward Morrison" position="Brand Manager" location="Office 2" email="me@example.com" placeholders="1" link="https://www.draw.io" id="dNxyNK7c78bLwvsdeMH5-14">
          <mxCell style="label;image=https://cdn3.iconfinder.com/data/icons/user-avatars-1/512/users-10-3-128.png;whiteSpace=wrap;html=1;rounded=0;glass=0;treeFolding=1;treeMoving=1;" parent="1" vertex="1">
            <mxGeometry x="40" y="400" width="180" height="80" as="geometry" />
          </mxCell>
        </UserObject>
        <mxCell id="dNxyNK7c78bLwvsdeMH5-13" value="Upload menu" style="endArrow=blockThin;endFill=1;fontSize=11;edgeStyle=elbowEdgeStyle;elbow=vertical;rounded=0;exitX=0.322;exitY=-0.075;exitDx=0;exitDy=0;exitPerimeter=0;entryX=0.5;entryY=1;entryDx=0;entryDy=0;" parent="1" source="dNxyNK7c78bLwvsdeMH5-14" target="dNxyNK7c78bLwvsdeMH5-16" edge="1">
          <mxGeometry x="0.0069" relative="1" as="geometry">
            <mxPoint as="offset" />
          </mxGeometry>
        </mxCell>
        <UserObject label="Random users" name="Alison Donovan" position="System Admin" location="Office 3" email="me@example.com" placeholders="1" link="https://www.draw.io" id="dNxyNK7c78bLwvsdeMH5-18">
          <mxCell style="label;image=https://cdn3.iconfinder.com/data/icons/user-avatars-1/512/users-2-128.png;whiteSpace=wrap;html=1;rounded=0;glass=0;" parent="1" vertex="1">
            <mxGeometry x="510" y="410" width="180" height="80" as="geometry" />
          </mxCell>
        </UserObject>
        <mxCell id="dNxyNK7c78bLwvsdeMH5-17" value="Preorder, select dishes" style="endArrow=blockThin;endFill=1;fontSize=11;edgeStyle=elbowEdgeStyle;elbow=vertical;rounded=0;exitX=0.5;exitY=0;exitDx=0;exitDy=0;entryX=0.368;entryY=1;entryDx=0;entryDy=0;entryPerimeter=0;" parent="1" source="dNxyNK7c78bLwvsdeMH5-18" target="dNxyNK7c78bLwvsdeMH5-12" edge="1">
          <mxGeometry relative="1" as="geometry">
            <mxPoint x="400" y="210" as="targetPoint" />
          </mxGeometry>
        </mxCell>
      </root>
    </mxGraphModel>
  </diagram>
</mxfile>
